StickNoBills-latin-0.ufo
<glyph name="exclam" format="1">
  <advance width="146"/>
  <unicode hex="0021"/>
  <outline>
    <contour>
      <point x="47" y="23" type="curve" smooth="yes"/>
      <point x="47" y="37"/>
      <point x="59" y="49"/>
      <point x="73" y="49" type="curve" smooth="yes"/>
      <point x="87" y="49"/>
      <point x="99" y="37"/>
      <point x="99" y="23" type="curve" smooth="yes"/>
      <point x="99" y="9"/>
      <point x="87" y="-3"/>
      <point x="73" y="-3" type="curve" smooth="yes"/>
      <point x="59" y="-3"/>
      <point x="47" y="9"/>
    </contour>
    <contour>
      <point x="53" y="166" type="line"/>
      <point x="53" y="700" type="line"/>
      <point x="93" y="700" type="line"/>
      <point x="93" y="166" type="line"/>
    </contour>
  </outline>
</glyph>
<glyph name="quotedbl" format="1">
  <advance width="217"/>
  <unicode hex="0022"/>
  <outline>
    <contour>
      <point x="42" y="465" type="line"/>
      <point x="42" y="736" type="line"/>
      <point x="82" y="736" type="line"/>
      <point x="82" y="465" type="line"/>
    </contour>
    <contour>
      <point x="135" y="465" type="line"/>
      <point x="135" y="736" type="line"/>
      <point x="175" y="736" type="line"/>
      <point x="175" y="465" type="line"/>
    </contour>
  </outline>
</glyph>
<glyph name="numbersign" format="1">
  <advance width="890"/>
  <unicode hex="0023"/>
  <outline>
    <contour>
      <point x="110" y="218" type="line"/>
      <point x="117" y="256" type="line"/>
      <point x="296" y="256" type="line"/>
      <point x="329" y="446" type="line"/>
      <point x="143" y="446" type="line"/>
      <point x="149" y="484" type="line"/>
      <point x="335" y="484" type="line"/>
      <point x="370" y="682" type="line"/>
      <point x="410" y="682" type="line"/>
      <point x="375" y="484" type="line"/>
      <point x="562" y="484" type="line"/>
      <point x="596" y="682" type="line"/>
      <point x="636" y="682" type="line"/>
      <point x="602" y="484" type="line"/>
      <point x="780" y="484" type="line"/>
      <point x="774" y="445" type="line"/>
      <point x="595" y="446" type="line"/>
      <point x="562" y="255" type="line"/>
      <point x="745" y="255" type="line"/>
      <point x="740" y="217" type="line"/>
      <point x="555" y="218" type="line"/>
      <point x="521" y="22" type="line"/>
      <point x="481" y="22" type="line"/>
      <point x="515" y="218" type="line"/>
      <point x="329" y="218" type="line"/>
      <point x="294" y="22" type="line"/>
      <point x="254" y="22" type="line"/>
      <point x="289" y="218" type="line"/>
    </contour>
    <contour>
      <point x="336" y="256" type="line"/>
      <point x="522" y="255" type="line"/>
      <point x="555" y="446" type="line"/>
      <point x="369" y="446" type="line"/>
    </contour>
  </outline>
</glyph>
<glyph name="dollar" format="1">
  <advance width="481"/>
  <unicode hex="0024"/>
  <outline>
    <contour>
      <point x="20" y="158" type="curve"/>
      <point x="57" y="171" type="line"/>
      <point x="83" y="42"/>
      <point x="208" y="35"/>
      <point x="208" y="35" type="curve"/>
      <point x="208" y="-47" type="line"/>
      <point x="178" y="-47" type="line"/>
      <point x="178" y="-1" type="line"/>
      <point x="81" y="15"/>
      <point x="21" y="108"/>
    </contour>
    <contour>
      <point x="28" y="514" type="curve" smooth="yes"/>
      <point x="28" y="628"/>
      <point x="118" y="682"/>
      <point x="178" y="696" type="curve"/>
      <point x="178" y="750" type="line"/>
      <point x="208" y="750" type="line"/>
      <point x="208" y="662" type="line"/>
      <point x="176" y="662"/>
      <point x="68" y="622"/>
      <point x="68" y="508" type="curve" smooth="yes"/>
      <point x="68" y="434"/>
      <point x="136" y="405"/>
      <point x="208" y="389" type="curve"/>
      <point x="208" y="348" type="line"/>
      <point x="185" y="352"/>
      <point x="165" y="355"/>
      <point x="151" y="360" type="curve" smooth="yes"/>
      <point x="77" y="388"/>
      <point x="28" y="421"/>
    </contour>
    <contour>
      <point x="253" y="-47" type="line"/>
      <point x="253" y="35" type="line"/>
      <point x="306" y="35"/>
      <point x="421" y="100"/>
      <point x="421" y="209" type="curve" smooth="yes"/>
      <point x="421" y="300"/>
      <point x="332" y="326"/>
      <point x="253" y="340" type="curve"/>
      <point x="253" y="380" type="line"/>
      <point x="283" y="375"/>
      <point x="312" y="371"/>
      <point x="333" y="365" type="curve" smooth="yes"/>
      <point x="402" y="346"/>
      <point x="461" y="311"/>
      <point x="461" y="203" type="curve" smooth="yes"/>
      <point x="461" y="108"/>
      <point x="384" y="15"/>
      <point x="283" y="-1" type="curve"/>
      <point x="283" y="-47" type="line"/>
    </contour>
    <contour>
      <point x="253" y="662" type="curve"/>
      <point x="253" y="750" type="line"/>
      <point x="283" y="750" type="line"/>
      <point x="283" y="697" type="line"/>
      <point x="374" y="680"/>
      <point x="426" y="591"/>
      <point x="433" y="553" type="curve"/>
      <point x="395" y="541" type="line"/>
      <point x="363" y="658"/>
      <point x="253" y="662"/>
    </contour>
  </outline>
</glyph>
<glyph name="ampersand" format="1">
  <advance width="658"/>
  <unicode hex="0026"/>
  <outline>
    <contour>
      <point x="386.836" y="96" type="line"/>
      <point x="352.957" y="57.9133"/>
      <point x="303.33" y="38.8295"/>
      <point x="254.639" y="38.8295" type="curve" smooth="yes"/>
      <point x="162.563" y="38.8295"/>
      <point x="70.2598" y="103.495"/>
      <point x="70.2598" y="213.086" type="curve" smooth="yes"/>
      <point x="70.2598" y="289.112"/>
      <point x="116.633" y="331.663"/>
      <point x="141" y="351" type="curve"/>
      <point x="113" y="379" type="line"/>
      <point x="57.79" y="334.387"/>
      <point x="30.2598" y="275.93"/>
      <point x="30.2598" y="213.086" type="curve" smooth="yes"/>
      <point x="30.2598" y="82.0868"/>
      <point x="137.034" y="-0.708435"/>
      <point x="250.587" y="-0.708435" type="curve" smooth="yes"/>
      <point x="307.894" y="-0.708435"/>
      <point x="366.928" y="20.379"/>
      <point x="414.836" y="67" type="curve"/>
    </contour>
    <contour>
      <point x="429" y="549" type="line" smooth="yes"/>
      <point x="422" y="598"/>
      <point x="379" y="658"/>
      <point x="314" y="666" type="curve"/>
      <point x="314" y="706" type="line"/>
      <point x="391.615" y="695.919"/>
      <point x="453.283" y="636.194"/>
      <point x="468.426" y="559" type="curve"/>
    </contour>
    <contour>
      <point x="259" y="666.069" type="line" smooth="yes"/>
      <point x="204" y="661"/>
      <point x="142" y="614.25"/>
      <point x="142" y="532" type="curve" smooth="yes"/>
      <point x="142" y="476.262"/>
      <point x="185.34" y="443.307"/>
      <point x="202" y="426" type="curve" smooth="yes"/>
      <point x="454.092" y="164" type="line"/>
      <point x="492" y="202"/>
      <point x="527.857" y="280.657"/>
      <point x="528" y="345" type="curve"/>
      <point x="568" y="345" type="line"/>
      <point x="568" y="260"/>
      <point x="523" y="175"/>
      <point x="483" y="134" type="curve"/>
      <point x="586" y="27" type="line"/>
      <point x="542" y="15" type="line"/>
      <point x="168" y="402" type="line" smooth="yes"/>
      <point x="125.68" y="445.791"/>
      <point x="102" y="473.59"/>
      <point x="102" y="532" type="curve" smooth="yes"/>
      <point x="102" y="620.729"/>
      <point x="168.033" y="693.764"/>
      <point x="259" y="706.069" type="curve"/>
    </contour>
  </outline>
</glyph>
<glyph name="asterisk" format="1">
  <advance width="305"/>
  <unicode hex="002A"/>
  <outline>
    <contour>
      <point x="17" y="705" type="line"/>
      <point x="40" y="737" type="line"/>
      <point x="132" y="679" type="line"/>
      <point x="132" y="785" type="line"/>
      <point x="172" y="785" type="line"/>
      <point x="172" y="674" type="line"/>
      <point x="268" y="737" type="line"/>
      <point x="290" y="705" type="line"/>
      <point x="182" y="633" type="line"/>
      <point x="290" y="559" type="line"/>
      <point x="267" y="527" type="line"/>
      <point x="172" y="595" type="line"/>
      <point x="172" y="478" type="line"/>
      <point x="132" y="478" type="line"/>
      <point x="132" y="595" type="line"/>
      <point x="37" y="531" type="line"/>
      <point x="15" y="563" type="line"/>
      <point x="124" y="634" type="line"/>
    </contour>
  </outline>
</glyph>
<glyph name="plus" format="1">
  <advance width="405"/>
  <unicode hex="002B"/>
  <outline>
    <contour>
      <point x="15" y="275" type="line"/>
      <point x="15" y="313" type="line"/>
      <point x="181" y="313" type="line"/>
      <point x="181" y="498" type="line"/>
      <point x="221" y="498" type="line"/>
      <point x="221" y="313" type="line"/>
      <point x="390" y="313" type="line"/>
      <point x="390" y="275" type="line"/>
      <point x="221" y="275" type="line"/>
      <point x="221" y="87" type="line"/>
      <point x="181" y="87" type="line"/>
      <point x="181" y="275" type="line"/>
    </contour>
  </outline>
</glyph>
<glyph name="period" format="1">
  <advance width="138"/>
  <unicode hex="002E"/>
  <outline>
    <contour>
      <point x="30" y="35" type="curve" smooth="yes"/>
      <point x="30" y="56"/>
      <point x="48" y="74"/>
      <point x="69" y="74" type="curve" smooth="yes"/>
      <point x="90" y="74"/>
      <point x="108" y="56"/>
      <point x="108" y="35" type="curve" smooth="yes"/>
      <point x="108" y="14"/>
      <point x="90" y="-4"/>
      <point x="69" y="-4" type="curve" smooth="yes"/>
      <point x="48" y="-4"/>
      <point x="30" y="14"/>
    </contour>
  </outline>
</glyph>
<glyph name="slash" format="1">
  <advance width="315"/>
  <unicode hex="002F"/>
  <outline>
    <contour>
      <point x="50" y="-23" type="line"/>
      <point x="225" y="716" type="line"/>
      <point x="265" y="716" type="line"/>
      <point x="91" y="-23" type="line"/>
    </contour>
  </outline>
</glyph>
<glyph name="zero" format="1">
  <advance width="506"/>
  <unicode hex="0030"/>
  <outline>
    <contour>
      <point x="222" y="0" type="line"/>
      <point x="156" y="3"/>
      <point x="40" y="60"/>
      <point x="40" y="353" type="curve" smooth="yes"/>
      <point x="40" y="602"/>
      <point x="134" y="693"/>
      <point x="223" y="698" type="curve"/>
      <point x="223" y="660" type="line"/>
      <point x="172" y="660"/>
      <point x="85" y="583"/>
      <point x="81" y="398" type="curve" smooth="yes"/>
      <point x="80" y="371"/>
      <point x="81" y="360"/>
      <point x="81" y="339" type="curve" smooth="yes"/>
      <point x="81" y="93"/>
      <point x="181" y="39"/>
      <point x="222" y="38" type="curve"/>
    </contour>
    <contour>
      <point x="284" y="0" type="curve"/>
      <point x="284" y="38" type="line"/>
      <point x="339" y="46"/>
      <point x="426" y="90"/>
      <point x="426" y="339" type="curve" smooth="yes"/>
      <point x="426" y="360"/>
      <point x="426" y="371"/>
      <point x="426" y="398" type="curve" smooth="yes"/>
      <point x="426" y="577"/>
      <point x="335" y="659"/>
      <point x="283" y="660" type="curve"/>
      <point x="283" y="698" type="line"/>
      <point x="372" y="693"/>
      <point x="466" y="602"/>
      <point x="466" y="353" type="curve" smooth="yes"/>
      <point x="466" y="60"/>
      <point x="350" y="3"/>
    </contour>
  </outline>
</glyph>
<glyph name="one" format="1">
  <advance width="198"/>
  <unicode hex="0031"/>
  <outline>
    <contour>
      <point x="76" y="624" type="line"/>
      <point x="76" y="667" type="line"/>
      <point x="116" y="700" type="line"/>
      <point x="156" y="700" type="line"/>
      <point x="156" y="0" type="line"/>
      <point x="116" y="0" type="line"/>
      <point x="116" y="624" type="line"/>
    </contour>
  </outline>
</glyph>
<glyph name="two" format="1">
  <advance width="485"/>
  <unicode hex="0032"/>
  <outline>
    <contour>
      <point x="29.9443" y="520" type="line"/>
      <point x="38.9443" y="604"/>
      <point x="99.9443" y="691"/>
      <point x="205.944" y="700" type="curve"/>
      <point x="205.944" y="662" type="line" smooth="yes"/>
      <point x="205.944" y="662"/>
      <point x="90.9443" y="659"/>
      <point x="66.9443" y="512" type="curve"/>
    </contour>
    <contour>
      <point x="48.9443" y="0" type="line"/>
      <point x="48.9443" y="38" type="line"/>
      <point x="452.944" y="38" type="line"/>
      <point x="452.944" y="0" type="line"/>
    </contour>
    <contour>
      <point x="48.9443" y="80" type="line"/>
      <point x="48.9443" y="257"/>
      <point x="256.944" y="328"/>
      <point x="293.944" y="346" type="curve" smooth="yes"/>
      <point x="349.944" y="373"/>
      <point x="418.944" y="408"/>
      <point x="418.944" y="494" type="curve" smooth="yes"/>
      <point x="418.944" y="579"/>
      <point x="386.944" y="662"/>
      <point x="250.944" y="662" type="curve"/>
      <point x="250.944" y="700" type="line"/>
      <point x="408.944" y="700"/>
      <point x="460.944" y="599"/>
      <point x="458.944" y="494" type="curve" smooth="yes"/>
      <point x="456.944" y="410"/>
      <point x="411.944" y="364"/>
      <point x="343.944" y="329" type="curve" smooth="yes"/>
      <point x="269.944" y="291"/>
      <point x="88.9443" y="231"/>
      <point x="88.9443" y="80" type="curve"/>
    </contour>
  </outline>
</glyph>
<glyph name="three" format="1">
  <advance width="484"/>
  <unicode hex="0033"/>
  <outline>
    <contour>
      <point x="19" y="176" type="line"/>
      <point x="28" y="92"/>
      <point x="89" y="5"/>
      <point x="195" y="-4" type="curve"/>
      <point x="195" y="34" type="line" smooth="yes"/>
      <point x="195" y="34"/>
      <point x="80" y="37"/>
      <point x="56" y="184" type="curve"/>
    </contour>
    <contour>
      <point x="366.722" y="348" type="curve"/>
      <point x="429" y="390"/>
      <point x="446.515" y="444.729"/>
      <point x="446.515" y="510.524" type="curve" smooth="yes"/>
      <point x="446.515" y="614.535"/>
      <point x="380.19" y="699.8"/>
      <point x="250" y="700" type="curve"/>
      <point x="250" y="662" type="line"/>
      <point x="343.031" y="662"/>
      <point x="407.267" y="609.067"/>
      <point x="407.267" y="508.313" type="curve" smooth="yes"/>
      <point x="407.267" y="447.936"/>
      <point x="384.246" y="366"/>
      <point x="245" y="366" type="curve"/>
      <point x="245" y="330" type="line"/>
      <point x="384.246" y="330"/>
      <point x="407.267" y="248.063"/>
      <point x="407.267" y="187.687" type="curve" smooth="yes"/>
      <point x="407.267" y="86.9336"/>
      <point x="343.031" y="34"/>
      <point x="250" y="34" type="curve"/>
      <point x="250" y="-4" type="line"/>
      <point x="380.19" y="-3.7998"/>
      <point x="446.515" y="81.4648"/>
      <point x="446.515" y="185.476" type="curve" smooth="yes"/>
      <point x="446.515" y="251.271"/>
      <point x="429" y="305"/>
    </contour>
    <contour>
      <point x="18.9443" y="520" type="line"/>
      <point x="27.9443" y="604"/>
      <point x="88.9443" y="691"/>
      <point x="194.944" y="700" type="curve"/>
      <point x="194.944" y="662" type="line" smooth="yes"/>
      <point x="194.944" y="662"/>
      <point x="79.9443" y="659"/>
      <point x="55.9443" y="512" type="curve"/>
    </contour>
  </outline>
</glyph>
<glyph name="four" format="1">
  <advance width="501"/>
  <unicode hex="0034"/>
  <outline>
    <contour>
      <point x="30" y="145" type="line"/>
      <point x="30" y="183" type="line"/>
      <point x="321" y="677" type="line"/>
      <point x="321" y="608" type="line"/>
      <point x="73" y="183" type="line"/>
      <point x="321" y="183" type="line"/>
      <point x="321" y="145" type="line"/>
    </contour>
    <contour>
      <point x="366" y="0" type="line"/>
      <point x="366" y="701" type="line"/>
      <point x="407" y="701" type="line"/>
      <point x="407" y="183" type="line"/>
      <point x="461" y="183" type="line"/>
      <point x="461" y="145" type="line"/>
      <point x="407" y="145" type="line"/>
      <point x="407" y="0" type="line"/>
    </contour>
  </outline>
</glyph>
<glyph name="five" format="1">
  <advance width="475"/>
  <unicode hex="0035"/>
  <outline>
    <contour>
      <point x="20" y="354" type="line"/>
      <point x="49" y="700" type="line"/>
      <point x="403" y="700" type="line"/>
      <point x="403" y="662" type="line"/>
      <point x="85" y="661" type="line"/>
      <point x="64" y="398" type="line"/>
      <point x="92" y="420"/>
      <point x="137" y="447"/>
      <point x="202" y="447" type="curve"/>
      <point x="202" y="409" type="line"/>
      <point x="150" y="409"/>
      <point x="101" y="386"/>
      <point x="59" y="330" type="curve"/>
    </contour>
    <contour>
      <point x="22" y="107" type="curve"/>
      <point x="55" y="129" type="line"/>
      <point x="90" y="68"/>
      <point x="128" y="44"/>
      <point x="202" y="38" type="curve"/>
      <point x="202" y="0" type="line"/>
      <point x="118" y="0"/>
      <point x="54" y="46"/>
    </contour>
    <contour>
      <point x="247" y="0" type="curve"/>
      <point x="247" y="38" type="line"/>
      <point x="311" y="38"/>
      <point x="421" y="96"/>
      <point x="421" y="224" type="curve" smooth="yes"/>
      <point x="421" y="366"/>
      <point x="311" y="409"/>
      <point x="247" y="409" type="curve"/>
      <point x="247" y="447" type="line"/>
      <point x="395" y="447"/>
      <point x="460" y="333"/>
      <point x="460" y="223" type="curve" smooth="yes"/>
      <point x="460" y="78"/>
      <point x="352" y="2"/>
    </contour>
  </outline>
</glyph>
<glyph name="six" format="1">
  <advance width="509"/>
  <unicode hex="0036"/>
  <outline>
    <contour>
      <point x="25" y="349" type="curve" smooth="yes"/>
      <point x="25" y="466"/>
      <point x="55" y="679"/>
      <point x="232" y="697" type="curve"/>
      <point x="232" y="659" type="line"/>
      <point x="81" y="635"/>
      <point x="65" y="448"/>
      <point x="65" y="324" type="curve"/>
      <point x="101" y="399"/>
      <point x="171" y="425"/>
      <point x="232" y="425" type="curve"/>
      <point x="232" y="387" type="line"/>
      <point x="132" y="387"/>
      <point x="79" y="304"/>
      <point x="79" y="211" type="curve" smooth="yes"/>
      <point x="79" y="164"/>
      <point x="111" y="37"/>
      <point x="232" y="37" type="curve"/>
      <point x="232" y="-1" type="line"/>
      <point x="58" y="6"/>
      <point x="25" y="172.997"/>
    </contour>
    <contour>
      <point x="287" y="-1" type="curve"/>
      <point x="287" y="37" type="line"/>
      <point x="385" y="37"/>
      <point x="440" y="136"/>
      <point x="440" y="211" type="curve" smooth="yes"/>
      <point x="440" y="335"/>
      <point x="358" y="389"/>
      <point x="287" y="389" type="curve"/>
      <point x="287" y="425" type="line"/>
      <point x="411" y="425"/>
      <point x="479" y="330"/>
      <point x="479" y="212" type="curve" smooth="yes"/>
      <point x="479" y="87"/>
      <point x="388" y="0"/>
    </contour>
    <contour>
      <point x="286" y="660" type="curve"/>
      <point x="286" y="698" type="line"/>
      <point x="364" y="698"/>
      <point x="425" y="651"/>
      <point x="452" y="594" type="curve"/>
      <point x="419" y="572" type="line"/>
      <point x="402" y="607"/>
      <point x="363" y="660"/>
    </contour>
  </outline>
</glyph>
<glyph name="seven" format="1">
  <advance width="435"/>
  <unicode hex="0037"/>
  <outline>
    <contour>
      <point x="429" y="661" type="line"/>
      <point x="429" y="700" type="line"/>
      <point x="30" y="700" type="line"/>
      <point x="30" y="660" type="line"/>
    </contour>
    <contour>
      <point x="210" y="0" type="line"/>
      <point x="227" y="158"/>
      <point x="272" y="408"/>
      <point x="381" y="616" type="curve"/>
      <point x="424" y="616" type="line"/>
      <point x="311" y="406"/>
      <point x="269" y="154"/>
      <point x="253" y="0" type="curve"/>
    </contour>
  </outline>
</glyph>
<glyph name="eight" format="1">
  <advance width="475"/>
  <unicode hex="0038"/>
  <outline>
    <contour>
      <point x="207" y="0" type="line"/>
      <point x="84.5729" y="0"/>
      <point x="15.0499" y="97.2624"/>
      <point x="15.0499" y="193.787" type="curve" smooth="yes"/>
      <point x="15.0499" y="253.568"/>
      <point x="30.7173" y="310.066"/>
      <point x="99" y="349" type="curve"/>
      <point x="43.7182" y="385.244"/>
      <point x="19.0528" y="441.728"/>
      <point x="19.0528" y="498.773" type="curve" smooth="yes"/>
      <point x="19.0528" y="597.544"/>
      <point x="92.9987" y="698"/>
      <point x="210" y="698" type="curve"/>
      <point x="210" y="660" type="line"/>
      <point x="106" y="656"/>
      <point x="60" y="572"/>
      <point x="60" y="501" type="curve" smooth="yes"/>
      <point x="60" y="434"/>
      <point x="103" y="368"/>
      <point x="209" y="368" type="curve"/>
      <point x="209" y="330" type="line"/>
      <point x="144" y="330"/>
      <point x="54" y="308"/>
      <point x="54" y="199" type="curve" smooth="yes"/>
      <point x="54" y="90"/>
      <point x="128" y="42"/>
      <point x="207" y="38" type="curve"/>
    </contour>
    <contour>
      <point x="262" y="0" type="curve"/>
      <point x="262" y="38" type="line"/>
      <point x="341" y="42"/>
      <point x="415" y="90"/>
      <point x="415" y="199" type="curve" smooth="yes"/>
      <point x="415" y="308"/>
      <point x="325" y="330"/>
      <point x="260" y="330" type="curve"/>
      <point x="260" y="368" type="line"/>
      <point x="366" y="368"/>
      <point x="409" y="434"/>
      <point x="409" y="501" type="curve" smooth="yes"/>
      <point x="409" y="572"/>
      <point x="363" y="656"/>
      <point x="259" y="660" type="curve"/>
      <point x="259" y="698" type="line"/>
      <point x="376.001" y="698"/>
      <point x="449.947" y="597.544"/>
      <point x="449.947" y="498.772" type="curve" smooth="yes"/>
      <point x="449.947" y="441.728"/>
      <point x="425.282" y="385.244"/>
      <point x="370" y="349" type="curve"/>
      <point x="438.283" y="310.066"/>
      <point x="453.95" y="253.568"/>
      <point x="453.95" y="193.787" type="curve" smooth="yes"/>
      <point x="453.95" y="97.2627"/>
      <point x="384.427" y="0"/>
    </contour>
  </outline>
</glyph>
<glyph name="greater" format="1">
  <advance width="434"/>
  <unicode hex="003E"/>
  <outline>
    <contour>
      <point x="40" y="79" type="line"/>
      <point x="40" y="119" type="line"/>
      <point x="348" y="292" type="line"/>
      <point x="40" y="460" type="line"/>
      <point x="40" y="500" type="line"/>
      <point x="394" y="308" type="line"/>
      <point x="394" y="276" type="line"/>
    </contour>
  </outline>
</glyph>
<glyph name="at" format="1">
  <advance width="722"/>
  <unicode hex="0040"/>
  <outline>
    <contour>
      <point x="16" y="309" type="curve" smooth="yes"/>
      <point x="16" y="519"/>
      <point x="188" y="678"/>
      <point x="408" y="678" type="curve" smooth="yes"/>
      <point x="544" y="678"/>
      <point x="705" y="590"/>
      <point x="705" y="413" type="curve" smooth="yes"/>
      <point x="705" y="182"/>
      <point x="541" y="161"/>
      <point x="505" y="161" type="curve" smooth="yes"/>
      <point x="469" y="161"/>
      <point x="430" y="199"/>
      <point x="424" y="219" type="curve"/>
      <point x="413" y="202"/>
      <point x="378" y="169"/>
      <point x="329" y="169" type="curve" smooth="yes"/>
      <point x="270" y="169"/>
      <point x="221" y="229"/>
      <point x="221" y="304" type="curve" smooth="yes"/>
      <point x="221" y="425"/>
      <point x="316" y="483"/>
      <point x="380" y="483" type="curve" smooth="yes"/>
      <point x="430" y="483"/>
      <point x="447" y="462"/>
      <point x="459" y="450" type="curve"/>
      <point x="465" y="471" type="line"/>
      <point x="504" y="471" type="line"/>
      <point x="463" y="308" type="line" smooth="yes"/>
      <point x="460" y="297"/>
      <point x="456" y="280"/>
      <point x="453" y="266" type="curve" smooth="yes"/>
      <point x="449" y="249"/>
      <point x="470" y="197"/>
      <point x="511" y="197" type="curve" smooth="yes"/>
      <point x="552" y="197"/>
      <point x="667" y="226"/>
      <point x="667" y="412" type="curve" smooth="yes"/>
      <point x="667" y="554"/>
      <point x="529" y="640"/>
      <point x="408" y="640" type="curve" smooth="yes"/>
      <point x="217" y="640"/>
      <point x="56" y="498"/>
      <point x="56" y="309" type="curve" smooth="yes"/>
      <point x="56" y="119"/>
      <point x="197" y="-14"/>
      <point x="381" y="-14" type="curve" smooth="yes"/>
      <point x="484" y="-14"/>
      <point x="563" y="19"/>
      <point x="643" y="75" type="curve"/>
      <point x="661" y="41" type="line"/>
      <point x="590" y="-11"/>
      <point x="496" y="-52"/>
      <point x="381" y="-52" type="curve" smooth="yes"/>
      <point x="153" y="-52"/>
      <point x="16" y="112"/>
    </contour>
  </outline>
</glyph>
<glyph name="A" format="1">
  <advance width="433"/>
  <unicode hex="0041"/>
  <outline>
    <contour>
      <point x="32" y="0" type="line"/>
      <point x="169" y="599" type="line"/>
      <point x="186" y="599" type="line"/>
      <point x="196" y="554" type="line"/>
      <point x="72" y="0" type="line"/>
    </contour>
    <contour>
      <point x="146" y="135" type="line"/>
      <point x="154" y="173" type="line"/>
      <point x="324" y="173" type="line"/>
      <point x="209" y="699" type="line"/>
      <point x="249" y="699" type="line"/>
      <point x="401" y="0" type="line"/>
      <point x="361" y="0" type="line"/>
      <point x="333" y="135" type="line"/>
    </contour>
  </outline>
</glyph>
<glyph name="B" format="1">
  <advance width="496"/>
  <unicode hex="0042"/>
  <outline>
    <contour>
      <point x="42" y="0" type="line"/>
      <point x="42" y="700" type="line"/>
      <point x="82" y="700" type="line"/>
      <point x="82" y="0" type="line"/>
    </contour>
    <contour>
      <point x="127" y="-1" type="curve"/>
      <point x="127" y="37" type="line"/>
      <point x="151" y="37"/>
      <point x="223" y="37"/>
      <point x="223" y="37" type="curve" smooth="yes"/>
      <point x="386" y="37"/>
      <point x="434" y="132"/>
      <point x="434" y="205" type="curve" smooth="yes"/>
      <point x="434" y="277"/>
      <point x="397" y="333"/>
      <point x="288" y="333" type="curve" smooth="yes"/>
      <point x="288" y="333"/>
      <point x="147" y="333"/>
      <point x="127" y="333" type="curve"/>
      <point x="127" y="371" type="line"/>
      <point x="142" y="371"/>
      <point x="288" y="371"/>
      <point x="288" y="371" type="curve" smooth="yes"/>
      <point x="399" y="371"/>
      <point x="430" y="426"/>
      <point x="430" y="497" type="curve" smooth="yes"/>
      <point x="430" y="567"/>
      <point x="381" y="662"/>
      <point x="256" y="662" type="curve" smooth="yes"/>
      <point x="256" y="662"/>
      <point x="150" y="662"/>
      <point x="127" y="662" type="curve"/>
      <point x="127" y="700" type="line"/>
      <point x="135" y="700"/>
      <point x="258" y="700"/>
      <point x="258" y="700" type="curve" smooth="yes"/>
      <point x="410" y="700"/>
      <point x="470" y="588"/>
      <point x="470" y="497" type="curve" smooth="yes"/>
      <point x="470" y="427"/>
      <point x="436" y="378"/>
      <point x="401" y="352" type="curve"/>
      <point x="439" y="322"/>
      <point x="474" y="289"/>
      <point x="474" y="205" type="curve" smooth="yes"/>
      <point x="474" y="85"/>
      <point x="383" y="-1"/>
      <point x="262" y="-1" type="curve" smooth="yes"/>
      <point x="262" y="-1"/>
      <point x="137" y="-1"/>
    </contour>
  </outline>
</glyph>
<glyph name="C" format="1">
  <advance width="516"/>
  <unicode hex="0043"/>
  <outline>
    <contour>
      <point x="40" y="181" type="curve"/>
      <point x="40" y="518" type="line"/>
      <point x="40" y="578"/>
      <point x="94" y="706"/>
      <point x="241" y="705" type="curve"/>
      <point x="241" y="667" type="line"/>
      <point x="127" y="667"/>
      <point x="80" y="568"/>
      <point x="80" y="518" type="curve"/>
      <point x="80" y="181" type="line"/>
      <point x="80" y="131"/>
      <point x="128" y="33"/>
      <point x="241" y="33" type="curve"/>
      <point x="241" y="-5" type="line"/>
      <point x="93" y="-5"/>
      <point x="40" y="121"/>
    </contour>
    <contour>
      <point x="286" y="-5" type="curve"/>
      <point x="286" y="33" type="line"/>
      <point x="286" y="33"/>
      <point x="402" y="35"/>
      <point x="433" y="139" type="curve" smooth="yes"/>
      <point x="436.091" y="149.305"/>
      <point x="438.386" y="161.203"/>
      <point x="439.885" y="171" type="curve" smooth="yes"/>
      <point x="441.295" y="180.218"/>
      <point x="442" y="187.576"/>
      <point x="442" y="190" type="curve"/>
      <point x="476" y="182" type="line"/>
      <point x="476" y="76"/>
      <point x="383" y="-5"/>
    </contour>
    <contour>
      <point x="286" y="667" type="curve"/>
      <point x="286" y="705" type="line"/>
      <point x="383" y="706"/>
      <point x="476" y="612"/>
      <point x="476" y="516" type="curve"/>
      <point x="440" y="507" type="line"/>
      <point x="440" y="512.465"/>
      <point x="439.823" y="518.107"/>
      <point x="439.173" y="524" type="curve" smooth="yes"/>
      <point x="438.276" y="532.125"/>
      <point x="436.478" y="540.726"/>
      <point x="433" y="550" type="curve" smooth="yes"/>
      <point x="392" y="666"/>
      <point x="286" y="667"/>
    </contour>
  </outline>
</glyph>
<glyph name="D" format="1">
  <advance width="472"/>
  <unicode hex="0044"/>
  <outline>
    <contour>
      <point x="42" y="0" type="line"/>
      <point x="42" y="700" type="line"/>
      <point x="82" y="700" type="line"/>
      <point x="82" y="0" type="line"/>
    </contour>
    <contour>
      <point x="127" y="0" type="curve"/>
      <point x="127" y="38" type="line"/>
      <point x="270" y="38"/>
      <point x="394" y="41"/>
      <point x="394" y="197" type="curve" smooth="yes"/>
      <point x="394" y="503" type="line"/>
      <point x="394" y="669"/>
      <point x="263" y="662"/>
      <point x="127" y="662" type="curve"/>
      <point x="127" y="700" type="line"/>
      <point x="281" y="700"/>
      <point x="434" y="706"/>
      <point x="434" y="503" type="curve"/>
      <point x="434" y="197" type="line"/>
      <point x="434" y="0"/>
      <point x="287" y="0"/>
    </contour>
  </outline>
</glyph>
<glyph name="E" format="1">
  <advance width="444"/>
  <unicode hex="0045"/>
  <outline>
    <contour>
      <point x="42" y="0" type="line"/>
      <point x="42" y="700" type="line"/>
      <point x="406" y="700" type="line"/>
      <point x="406" y="662" type="line"/>
      <point x="82" y="662" type="line"/>
      <point x="82" y="368" type="line"/>
      <point x="312" y="368" type="line"/>
      <point x="312" y="330" type="line"/>
      <point x="82" y="330" type="line"/>
      <point x="82" y="38" type="line"/>
      <point x="406" y="38" type="line"/>
      <point x="406" y="0" type="line"/>
    </contour>
  </outline>
</glyph>
<glyph name="F" format="1">
  <advance width="432"/>
  <unicode hex="0046"/>
  <outline>
    <contour>
      <point x="42" y="1" type="line"/>
      <point x="42" y="700" type="line"/>
      <point x="406" y="700" type="line"/>
      <point x="406" y="662" type="line"/>
      <point x="82" y="662" type="line"/>
      <point x="82" y="368" type="line"/>
      <point x="312" y="368" type="line"/>
      <point x="312" y="330" type="line"/>
      <point x="82" y="330" type="line"/>
      <point x="82" y="1" type="line"/>
    </contour>
  </outline>
</glyph>
<glyph name="G" format="1">
  <advance width="515"/>
  <unicode hex="0047"/>
  <outline>
    <contour>
      <point x="40" y="192" type="curve"/>
      <point x="40" y="524" type="line"/>
      <point x="40" y="586"/>
      <point x="104" y="706"/>
      <point x="240" y="705" type="curve"/>
      <point x="240" y="667" type="line"/>
      <point x="157" y="667"/>
      <point x="80" y="596"/>
      <point x="80" y="508" type="curve"/>
      <point x="80" y="192" type="line" smooth="yes"/>
      <point x="80" y="77"/>
      <point x="200" y="33"/>
      <point x="240" y="33" type="curve"/>
      <point x="240" y="-5" type="line"/>
      <point x="175" y="-5"/>
      <point x="40" y="48"/>
    </contour>
    <contour>
      <point x="285" y="-5" type="curve"/>
      <point x="285" y="33" type="line"/>
      <point x="338" y="33"/>
      <point x="435" y="102"/>
      <point x="435" y="190" type="curve" smooth="yes"/>
      <point x="435" y="315" type="line"/>
      <point x="285" y="315" type="line"/>
      <point x="285" y="353" type="line"/>
      <point x="475" y="353" type="line"/>
      <point x="475" y="176" type="line" smooth="yes"/>
      <point x="475" y="95"/>
      <point x="372" y="-5"/>
    </contour>
    <contour>
      <point x="285" y="667" type="curve"/>
      <point x="285" y="705" type="line"/>
      <point x="383" y="706"/>
      <point x="475" y="612"/>
      <point x="475" y="516" type="curve"/>
      <point x="436" y="502" type="line"/>
      <point x="436" y="507.492"/>
      <point x="435.777" y="512.825"/>
      <point x="435.348" y="518" type="curve" smooth="yes"/>
      <point x="426.236" y="627.785"/>
      <point x="324.154" y="667"/>
    </contour>
  </outline>
</glyph>
<glyph name="H" format="1">
  <advance width="478"/>
  <unicode hex="0048"/>
  <outline>
    <contour>
      <point x="42" y="0" type="line"/>
      <point x="42" y="700" type="line"/>
      <point x="82" y="700" type="line"/>
      <point x="82" y="371" type="line"/>
      <point x="216" y="371" type="line"/>
      <point x="216" y="333" type="line"/>
      <point x="82" y="333" type="line"/>
      <point x="82" y="0" type="line"/>
    </contour>
    <contour>
      <point x="262" y="333" type="line"/>
      <point x="262" y="371" type="line"/>
      <point x="396" y="371" type="line"/>
      <point x="396" y="700" type="line"/>
      <point x="436" y="700" type="line"/>
      <point x="436" y="0" type="line"/>
      <point x="396" y="0" type="line"/>
      <point x="396" y="333" type="line"/>
    </contour>
  </outline>
</glyph>
<glyph name="I" format="1">
  <advance width="124"/>
  <unicode hex="0049"/>
  <outline>
    <contour>
      <point x="42" y="0" type="line"/>
      <point x="42" y="700" type="line"/>
      <point x="82" y="700" type="line"/>
      <point x="82" y="0" type="line"/>
    </contour>
  </outline>
</glyph>
<glyph name="J" format="1">
  <advance width="484"/>
  <unicode hex="004A"/>
  <outline>
    <contour>
      <point x="15" y="193" type="curve"/>
      <point x="15" y="242" type="line"/>
      <point x="55" y="242" type="line"/>
      <point x="55" y="200" type="line" smooth="yes"/>
      <point x="55" y="86"/>
      <point x="155" y="33"/>
      <point x="206" y="33" type="curve"/>
      <point x="206" y="-5" type="line"/>
      <point x="146" y="-5"/>
      <point x="15" y="54"/>
    </contour>
    <contour>
      <point x="252" y="-5" type="curve"/>
      <point x="252" y="33" type="line"/>
      <point x="295" y="33"/>
      <point x="412" y="84"/>
      <point x="412" y="193" type="curve" smooth="yes"/>
      <point x="412" y="700" type="line"/>
      <point x="452" y="700" type="line"/>
      <point x="452" y="193" type="line"/>
      <point x="452" y="49"/>
      <point x="312" y="-5"/>
    </contour>
  </outline>
</glyph>
<glyph name="K" format="1">
  <advance width="488"/>
  <unicode hex="004B"/>
  <outline>
    <contour>
      <point x="42" y="0" type="line"/>
      <point x="42" y="700" type="line"/>
      <point x="82" y="700" type="line"/>
      <point x="82" y="0" type="line"/>
    </contour>
    <contour>
      <point x="127" y="341" type="line"/>
      <point x="419" y="700" type="line"/>
      <point x="469" y="700" type="line"/>
      <point x="177" y="341" type="line"/>
      <point x="473" y="0" type="line"/>
      <point x="423" y="0" type="line"/>
    </contour>
  </outline>
</glyph>
<glyph name="L" format="1">
  <advance width="433"/>
  <unicode hex="004C"/>
  <outline>
    <contour>
      <point x="42" y="0" type="line"/>
      <point x="42" y="700" type="line"/>
      <point x="82" y="700" type="line"/>
      <point x="82" y="38" type="line"/>
      <point x="418" y="38" type="line"/>
      <point x="418" y="0" type="line"/>
    </contour>
  </outline>
</glyph>
<glyph name="M" format="1">
  <advance width="696"/>
  <unicode hex="004D"/>
  <outline>
    <contour>
      <point x="42" y="0" type="line"/>
      <point x="42" y="549" type="line"/>
      <point x="51" y="549" type="line"/>
      <point x="82" y="472" type="line"/>
      <point x="82" y="0" type="line"/>
    </contour>
    <contour>
      <point x="42" y="678" type="line"/>
      <point x="42" y="700" type="line"/>
      <point x="79" y="700" type="line"/>
      <point x="343" y="59" type="line"/>
      <point x="559" y="547" type="line"/>
      <point x="569" y="547" type="line"/>
      <point x="569" y="469" type="line"/>
      <point x="362" y="0" type="line"/>
      <point x="324" y="0" type="line"/>
    </contour>
    <contour>
      <point x="614" y="0" type="line"/>
      <point x="614" y="700" type="line"/>
      <point x="654" y="700" type="line"/>
      <point x="654" y="0" type="line"/>
    </contour>
  </outline>
</glyph>
<glyph name="N" format="1">
  <advance width="529"/>
  <unicode hex="004E"/>
  <outline>
    <contour>
      <point x="42" y="0" type="line"/>
      <point x="42" y="596" type="line"/>
      <point x="50" y="596" type="line"/>
      <point x="82" y="544" type="line"/>
      <point x="82" y="0" type="line"/>
    </contour>
    <contour>
      <point x="42" y="676" type="line"/>
      <point x="42" y="700" type="line"/>
      <point x="81" y="700" type="line"/>
      <point x="487" y="53" type="line"/>
      <point x="487" y="0" type="line"/>
      <point x="466" y="0" type="line"/>
    </contour>
    <contour>
      <point x="447" y="189" type="line"/>
      <point x="447" y="700" type="line"/>
      <point x="487" y="700" type="line"/>
      <point x="487" y="136" type="line"/>
      <point x="479" y="136" type="line"/>
    </contour>
  </outline>
</glyph>
<glyph name="O" format="1">
  <advance width="524"/>
  <unicode hex="004F"/>
  <outline>
    <contour>
      <point x="38" y="195" type="curve" smooth="yes"/>
      <point x="38" y="524" type="line" smooth="yes"/>
      <point x="38" y="584"/>
      <point x="103" y="705"/>
      <point x="235" y="705" type="curve"/>
      <point x="235" y="666" type="line"/>
      <point x="137" y="666"/>
      <point x="78" y="566"/>
      <point x="78" y="508" type="curve" smooth="yes"/>
      <point x="78" y="195" type="line" smooth="yes"/>
      <point x="78" y="93"/>
      <point x="180" y="34"/>
      <point x="234" y="34" type="curve"/>
      <point x="234" y="-5" type="line"/>
      <point x="174" y="-5"/>
      <point x="38" y="51"/>
    </contour>
    <contour>
      <point x="289" y="-5" type="curve"/>
      <point x="289" y="34" type="line"/>
      <point x="345" y="34"/>
      <point x="446" y="90"/>
      <point x="446" y="195" type="curve" smooth="yes"/>
      <point x="446" y="508" type="line" smooth="yes"/>
      <point x="446" y="571"/>
      <point x="388" y="666"/>
      <point x="289" y="666" type="curve"/>
      <point x="289" y="705" type="line"/>
      <point x="420" y="705"/>
      <point x="486" y="583"/>
      <point x="486" y="524" type="curve" smooth="yes"/>
      <point x="486" y="195" type="line" smooth="yes"/>
      <point x="486" y="51"/>
      <point x="349" y="-5"/>
    </contour>
  </outline>
</glyph>
<glyph name="P" format="1">
  <advance width="484"/>
  <unicode hex="0050"/>
  <outline>
    <contour>
      <point x="42" y="0" type="line"/>
      <point x="42" y="700" type="line"/>
      <point x="82" y="700" type="line"/>
      <point x="82" y="0" type="line"/>
    </contour>
    <contour>
      <point x="127" y="308" type="line"/>
      <point x="127" y="345" type="line"/>
      <point x="277" y="345" type="line" smooth="yes"/>
      <point x="377.839" y="345"/>
      <point x="423" y="392.184"/>
      <point x="423" y="508" type="curve" smooth="yes"/>
      <point x="423" y="613.351"/>
      <point x="383.476" y="664"/>
      <point x="276" y="664" type="curve" smooth="yes"/>
      <point x="127" y="664" type="line"/>
      <point x="127" y="700" type="line"/>
      <point x="298" y="700" type="line"/>
      <point x="383.017" y="695.466"/>
      <point x="464" y="660.192"/>
      <point x="464" y="505" type="curve" smooth="yes"/>
      <point x="464" y="348.626"/>
      <point x="384.957" y="311.682"/>
      <point x="298" y="308" type="curve"/>
    </contour>
  </outline>
</glyph>
<glyph name="Q" format="1">
  <advance width="526"/>
  <unicode hex="0051"/>
  <outline>
    <contour>
      <point x="38" y="195" type="curve" smooth="yes"/>
      <point x="38" y="524" type="line" smooth="yes"/>
      <point x="38" y="584"/>
      <point x="103" y="706"/>
      <point x="239" y="705" type="curve"/>
      <point x="239" y="667" type="line"/>
      <point x="137" y="667"/>
      <point x="78" y="574"/>
      <point x="78" y="508" type="curve" smooth="yes"/>
      <point x="78" y="195" type="line" smooth="yes"/>
      <point x="78" y="64"/>
      <point x="215" y="33"/>
      <point x="239" y="33" type="curve"/>
      <point x="239" y="-5" type="line"/>
      <point x="172" y="-5"/>
      <point x="38" y="51"/>
    </contour>
    <contour>
      <point x="285" y="-5" type="line"/>
      <point x="285" y="33" type="line"/>
      <point x="305" y="33"/>
      <point x="445" y="66"/>
      <point x="445" y="195" type="curve" smooth="yes"/>
      <point x="445" y="508" type="line" smooth="yes"/>
      <point x="445" y="574"/>
      <point x="387" y="667"/>
      <point x="285" y="667" type="curve"/>
      <point x="285" y="705" type="line"/>
      <point x="420" y="706"/>
      <point x="486" y="583"/>
      <point x="486" y="524" type="curve" smooth="yes"/>
      <point x="486" y="195" type="line" smooth="yes"/>
      <point x="486" y="77"/>
      <point x="396" y="27"/>
      <point x="334" y="2" type="curve"/>
      <point x="392" y="-84" type="line"/>
      <point x="360" y="-107" type="line"/>
    </contour>
  </outline>
</glyph>
<glyph name="R" format="1">
  <advance width="509"/>
  <unicode hex="0052"/>
  <outline>
    <contour>
      <point x="42" y="0" type="line"/>
      <point x="42" y="700" type="line"/>
      <point x="82" y="700" type="line"/>
      <point x="82" y="0" type="line"/>
    </contour>
    <contour>
      <point x="127" y="318" type="line"/>
      <point x="127" y="357" type="line"/>
      <point x="287" y="357" type="line" smooth="yes"/>
      <point x="375.573" y="357"/>
      <point x="413" y="400.711"/>
      <point x="413" y="508" type="curve" smooth="yes"/>
      <point x="413" y="615.377"/>
      <point x="372.132" y="667"/>
      <point x="261" y="667" type="curve" smooth="yes"/>
      <point x="127" y="667" type="line"/>
      <point x="127" y="700" type="line"/>
      <point x="283" y="700" type="line"/>
      <point x="370.578" y="695.466"/>
      <point x="454" y="660.192"/>
      <point x="454" y="505" type="curve" smooth="yes"/>
      <point x="454" y="408.789"/>
      <point x="425.711" y="360.206"/>
      <point x="384.634" y="336.977" type="curve"/>
      <point x="422.268" y="321.248"/>
      <point x="456.966" y="287.101"/>
      <point x="462" y="217" type="curve" smooth="yes"/>
      <point x="479" y="0" type="line"/>
      <point x="439" y="0" type="line"/>
      <point x="424" y="178" type="line" smooth="yes"/>
      <point x="416.476" y="265.092"/>
      <point x="397.903" y="321.925"/>
      <point x="298" y="318" type="curve"/>
    </contour>
  </outline>
</glyph>
<glyph name="S" format="1">
  <advance width="481"/>
  <unicode hex="0053"/>
  <outline>
    <contour>
      <point x="20" y="158" type="curve"/>
      <point x="57" y="171" type="line"/>
      <point x="83" y="42"/>
      <point x="208" y="35"/>
      <point x="208" y="35" type="curve"/>
      <point x="208" y="-3" type="line"/>
      <point x="93" y="-3"/>
      <point x="21" y="103"/>
    </contour>
    <contour>
      <point x="28" y="514" type="curve" smooth="yes"/>
      <point x="28" y="649"/>
      <point x="154" y="700"/>
      <point x="208" y="700" type="curve"/>
      <point x="208" y="662" type="line"/>
      <point x="176" y="662"/>
      <point x="68" y="622"/>
      <point x="68" y="508" type="curve" smooth="yes"/>
      <point x="68" y="387"/>
      <point x="253" y="387"/>
      <point x="333" y="365" type="curve" smooth="yes"/>
      <point x="402" y="346"/>
      <point x="461" y="311"/>
      <point x="461" y="203" type="curve" smooth="yes"/>
      <point x="461" y="99"/>
      <point x="368" y="-3"/>
      <point x="253" y="-3" type="curve"/>
      <point x="253" y="35" type="line"/>
      <point x="306" y="35"/>
      <point x="421" y="100"/>
      <point x="421" y="209" type="curve" smooth="yes"/>
      <point x="421" y="348"/>
      <point x="214" y="336"/>
      <point x="151" y="360" type="curve" smooth="yes"/>
      <point x="77" y="388"/>
      <point x="28" y="421"/>
    </contour>
    <contour>
      <point x="253" y="662" type="curve"/>
      <point x="253" y="700" type="line"/>
      <point x="363" y="700"/>
      <point x="425" y="595"/>
      <point x="433" y="553" type="curve"/>
      <point x="395" y="541" type="line"/>
      <point x="363" y="658"/>
      <point x="253" y="662"/>
    </contour>
  </outline>
</glyph>
<glyph name="T" format="1">
  <advance width="463"/>
  <unicode hex="0054"/>
  <outline>
    <contour>
      <point x="15" y="662" type="line"/>
      <point x="15" y="700" type="line"/>
      <point x="448" y="700" type="line"/>
      <point x="448" y="662" type="line"/>
      <point x="251" y="662" type="line"/>
      <point x="251" y="0" type="line"/>
      <point x="211" y="0" type="line"/>
      <point x="211" y="662" type="line"/>
    </contour>
  </outline>
</glyph>
<glyph name="U" format="1">
  <advance width="512"/>
  <unicode hex="0055"/>
  <outline>
    <contour>
      <point x="32" y="193" type="curve" smooth="yes"/>
      <point x="32" y="700" type="line"/>
      <point x="72" y="700" type="line"/>
      <point x="72" y="193" type="line"/>
      <point x="72" y="83"/>
      <point x="192" y="33"/>
      <point x="233" y="33" type="curve"/>
      <point x="233" y="-5" type="line"/>
      <point x="173" y="-5"/>
      <point x="32" y="49"/>
    </contour>
    <contour>
      <point x="279" y="-5" type="curve"/>
      <point x="279" y="33" type="line"/>
      <point x="322" y="33"/>
      <point x="439" y="78"/>
      <point x="439" y="193" type="curve"/>
      <point x="439" y="700" type="line"/>
      <point x="479" y="700" type="line"/>
      <point x="479" y="193" type="line" smooth="yes"/>
      <point x="479" y="48"/>
      <point x="340" y="-5"/>
    </contour>
  </outline>
</glyph>
<glyph name="V" format="1">
  <advance width="472"/>
  <unicode hex="0056"/>
  <outline>
    <contour>
      <point x="8" y="700" type="line"/>
      <point x="47" y="700" type="line"/>
      <point x="241" y="34" type="line"/>
      <point x="228" y="0" type="line"/>
      <point x="211" y="0" type="line"/>
    </contour>
    <contour>
      <point x="241" y="165" type="line"/>
      <point x="425" y="700" type="line"/>
      <point x="464" y="700" type="line"/>
      <point x="424" y="569"/>
      <point x="307" y="255"/>
      <point x="265" y="115" type="curve"/>
      <point x="255" y="115" type="line"/>
    </contour>
  </outline>
</glyph>
<glyph name="W" format="1">
  <advance width="822"/>
  <unicode hex="0057"/>
  <outline>
    <contour>
      <point x="40" y="700" type="line"/>
      <point x="79" y="700" type="line"/>
      <point x="269" y="44" type="line"/>
      <point x="258" y="0" type="line"/>
      <point x="243" y="0" type="line"/>
    </contour>
    <contour>
      <point x="265" y="182" type="line"/>
      <point x="403" y="700" type="line"/>
      <point x="442" y="700" type="line"/>
      <point x="289" y="130" type="line"/>
      <point x="279" y="130" type="line"/>
    </contour>
    <contour>
      <point x="403" y="700" type="line"/>
      <point x="442" y="700" type="line"/>
      <point x="615" y="38" type="line"/>
      <point x="602" y="0" type="line"/>
      <point x="587" y="0" type="line"/>
    </contour>
    <contour>
      <point x="620" y="181" type="line"/>
      <point x="773" y="700" type="line"/>
      <point x="812" y="700" type="line"/>
      <point x="645" y="130" type="line"/>
      <point x="635" y="130" type="line"/>
    </contour>
  </outline>
</glyph>
<glyph name="X" format="1">
  <advance width="442"/>
  <unicode hex="0058"/>
  <outline>
    <contour>
      <point x="15" y="0" type="line"/>
      <point x="202" y="362" type="line"/>
      <point x="27" y="700" type="line"/>
      <point x="66" y="700" type="line"/>
      <point x="221" y="398" type="line"/>
      <point x="376" y="700" type="line"/>
      <point x="415" y="700" type="line"/>
      <point x="240" y="362" type="line"/>
      <point x="427" y="0" type="line"/>
      <point x="388" y="0" type="line"/>
      <point x="221" y="325" type="line"/>
      <point x="54" y="0" type="line"/>
    </contour>
  </outline>
</glyph>
<glyph name="Y" format="1">
  <advance width="451"/>
  <unicode hex="0059"/>
  <outline>
    <contour>
      <point x="12" y="700" type="line"/>
      <point x="53" y="700" type="line"/>
      <point x="236" y="253" type="line"/>
      <point x="236" y="0" type="line"/>
      <point x="196" y="0" type="line"/>
      <point x="196" y="252" type="line"/>
    </contour>
    <contour>
      <point x="239" y="357" type="line"/>
      <point x="398" y="700" type="line"/>
      <point x="439" y="700" type="line"/>
      <point x="262" y="311" type="line"/>
      <point x="258" y="311" type="line"/>
    </contour>
  </outline>
</glyph>
<glyph name="Z" format="1">
  <advance width="400"/>
  <unicode hex="005A"/>
  <outline>
    <contour>
      <point x="30" y="0" type="line"/>
      <point x="30" y="35" type="line"/>
      <point x="353" y="662" type="line"/>
      <point x="30" y="662" type="line"/>
      <point x="30" y="700" type="line"/>
      <point x="396" y="700" type="line"/>
      <point x="396" y="665" type="line"/>
      <point x="73" y="38" type="line"/>
      <point x="397" y="38" type="line"/>
      <point x="396" y="0" type="line"/>
    </contour>
  </outline>
</glyph>
<glyph name="bracketleft" format="1">
  <advance width="258"/>
  <unicode hex="005B"/>
  <outline>
    <contour>
      <point x="95" y="-36" type="line"/>
      <point x="95" y="739" type="line"/>
      <point x="175" y="739" type="line"/>
      <point x="175" y="701" type="line"/>
      <point x="136" y="701" type="line"/>
      <point x="133" y="2" type="line"/>
      <point x="175" y="2" type="line"/>
      <point x="175" y="-36" type="line"/>
    </contour>
  </outline>
</glyph>
<glyph name="backslash" format="1">
  <advance width="296"/>
  <unicode hex="005C"/>
  <outline>
    <contour>
      <point x="40" y="716" type="line"/>
      <point x="81" y="716" type="line"/>
      <point x="256" y="-23" type="line"/>
      <point x="214" y="-23" type="line"/>
    </contour>
  </outline>
</glyph>
<glyph name="bracketright" format="1">
  <advance width="258"/>
  <unicode hex="005D"/>
  <outline>
    <contour>
      <point x="83" y="-36" type="line"/>
      <point x="83" y="2" type="line"/>
      <point x="125" y="2" type="line"/>
      <point x="122" y="701" type="line"/>
      <point x="83" y="701" type="line"/>
      <point x="83" y="739" type="line"/>
      <point x="163" y="739" type="line"/>
      <point x="163" y="-36" type="line"/>
    </contour>
  </outline>
</glyph>
<glyph name="asciicircum" format="1">
  <advance width="446"/>
  <unicode hex="005E"/>
  <outline>
    <contour>
      <point x="60" y="460" type="line"/>
      <point x="209" y="756" type="line"/>
      <point x="237" y="756" type="line"/>
      <point x="386" y="460" type="line"/>
      <point x="345" y="460" type="line"/>
      <point x="222" y="703" type="line"/>
      <point x="101" y="460" type="line"/>
    </contour>
  </outline>
</glyph>
<glyph name="grave" format="1">
  <advance width="259"/>
  <unicode hex="0060"/>
  <outline>
    <contour>
      <point x="42" y="757" type="line"/>
      <point x="82" y="757" type="line"/>
      <point x="119" y="605" type="line"/>
      <point x="90" y="605" type="line"/>
    </contour>
  </outline>
</glyph>
<glyph name="a" format="1">
  <advance width="434"/>
  <unicode hex="0061"/>
  <outline>
    <contour>
      <point x="25" y="121" type="curve" smooth="yes"/>
      <point x="25" y="167" type="line" smooth="yes"/>
      <point x="25" y="200"/>
      <point x="31.0284" y="234.786"/>
      <point x="74" y="257" type="curve" smooth="yes"/>
      <point x="125.849" y="283.802"/>
      <point x="342.124" y="308.114"/>
      <point x="342" y="347.472" type="curve"/>
      <point x="342" y="363" type="line" smooth="yes"/>
      <point x="342" y="441"/>
      <point x="275" y="483"/>
      <point x="226" y="483" type="curve"/>
      <point x="226" y="519" type="line"/>
      <point x="333" y="519"/>
      <point x="383" y="432"/>
      <point x="383" y="361" type="curve" smooth="yes"/>
      <point x="383" y="74" type="line" smooth="yes"/>
      <point x="383" y="66.4803"/>
      <point x="385.609" y="40"/>
      <point x="409" y="40" type="curve"/>
      <point x="409" y="1" type="line"/>
      <point x="369.827" y="1"/>
      <point x="355.771" y="18.7796"/>
      <point x="343" y="39" type="curve"/>
      <point x="318" y="14"/>
      <point x="266" y="1"/>
      <point x="226" y="1" type="curve"/>
      <point x="226" y="39" type="line"/>
      <point x="278" y="39"/>
      <point x="343" y="56"/>
      <point x="343" y="149" type="curve" smooth="yes"/>
      <point x="343" y="292" type="line"/>
      <point x="279" y="258.386"/>
      <point x="111.016" y="245.761"/>
      <point x="77" y="210" type="curve" smooth="yes"/>
      <point x="70.3429" y="203.343"/>
      <point x="66" y="188.53"/>
      <point x="66" y="171" type="curve" smooth="yes"/>
      <point x="66" y="132" type="line" smooth="yes"/>
      <point x="66.9701" y="63.6161"/>
      <point x="126.574" y="39"/>
      <point x="181" y="39" type="curve"/>
      <point x="181" y="1" type="line"/>
      <point x="84" y="1"/>
      <point x="25" y="64"/>
    </contour>
    <contour>
      <point x="32" y="389" type="line"/>
      <point x="31" y="463"/>
      <point x="108" y="519"/>
      <point x="181" y="519" type="curve"/>
      <point x="181" y="481" type="line"/>
      <point x="126" y="481"/>
      <point x="69" y="438"/>
      <point x="69" y="375" type="curve"/>
    </contour>
  </outline>
</glyph>
<glyph name="b" format="1">
  <advance width="430"/>
  <unicode hex="0062"/>
  <outline>
    <contour>
      <point x="42" y="0" type="line"/>
      <point x="42" y="699" type="line"/>
      <point x="82" y="699" type="line"/>
      <point x="82" y="0" type="line"/>
    </contour>
    <contour>
      <point x="127" y="0" type="line"/>
      <point x="127" y="38" type="line"/>
      <point x="245" y="38" type="line" smooth="yes"/>
      <point x="293" y="38"/>
      <point x="360" y="86"/>
      <point x="360" y="143" type="curve"/>
      <point x="360" y="373" type="line"/>
      <point x="360" y="426"/>
      <point x="300" y="478"/>
      <point x="245" y="478" type="curve" smooth="yes"/>
      <point x="127" y="478" type="line"/>
      <point x="127" y="516" type="line"/>
      <point x="246" y="516" type="line" smooth="yes"/>
      <point x="328" y="516"/>
      <point x="400" y="446"/>
      <point x="400" y="377" type="curve"/>
      <point x="400" y="141" type="line" smooth="yes"/>
      <point x="400" y="92"/>
      <point x="349" y="0"/>
      <point x="243" y="0" type="curve" smooth="yes"/>
    </contour>
  </outline>
</glyph>
<glyph name="c" format="1">
  <advance width="420"/>
  <unicode hex="0063"/>
  <outline>
    <contour>
      <point x="38" y="141" type="curve" smooth="yes"/>
      <point x="38" y="166"/>
      <point x="38" y="281"/>
      <point x="38" y="372" type="curve" smooth="yes"/>
      <point x="38" y="431"/>
      <point x="91" y="516"/>
      <point x="198" y="516" type="curve"/>
      <point x="198" y="478" type="line"/>
      <point x="127" y="478"/>
      <point x="79" y="414"/>
      <point x="79" y="369" type="curve" smooth="yes"/>
      <point x="79" y="141" type="line" smooth="yes"/>
      <point x="79" y="100"/>
      <point x="127" y="38"/>
      <point x="197" y="38" type="curve"/>
      <point x="197" y="0" type="line"/>
      <point x="76" y="0"/>
      <point x="38" y="94"/>
    </contour>
    <contour>
      <point x="242" y="477" type="curve"/>
      <point x="242" y="516" type="line"/>
      <point x="323" y="516"/>
      <point x="389" y="451"/>
      <point x="389" y="372" type="curve"/>
      <point x="350" y="358" type="line"/>
      <point x="350" y="363.538"/>
      <point x="349.722" y="368.87"/>
      <point x="349.188" y="374" type="curve" smooth="yes"/>
      <point x="341.825" y="444.829"/>
      <point x="285.826" y="477"/>
    </contour>
    <contour>
      <point x="241" y="-1" type="curve"/>
      <point x="241" y="37" type="line"/>
      <point x="296.818" y="37"/>
      <point x="352.637" y="83.7354"/>
      <point x="360.146" y="145" type="curve" smooth="yes"/>
      <point x="360.709" y="149.59"/>
      <point x="361" y="154.261"/>
      <point x="361" y="159" type="curve"/>
      <point x="400" y="144" type="line"/>
      <point x="400" y="65"/>
      <point x="321" y="-1"/>
    </contour>
  </outline>
</glyph>
<glyph name="e" format="1">
  <advance width="448"/>
  <unicode hex="0065"/>
  <outline>
    <contour>
      <point x="38" y="141" type="curve" smooth="yes"/>
      <point x="38" y="377" type="line"/>
      <point x="39" y="425"/>
      <point x="94" y="516"/>
      <point x="201" y="516" type="curve"/>
      <point x="201" y="478" type="line"/>
      <point x="129" y="478"/>
      <point x="78" y="410"/>
      <point x="78" y="369" type="curve" smooth="yes"/>
      <point x="78" y="285" type="line"/>
      <point x="369" y="285" type="line"/>
      <point x="369" y="369" type="line" smooth="yes"/>
      <point x="369" y="428"/>
      <point x="307" y="480"/>
      <point x="246" y="480" type="curve"/>
      <point x="246" y="516" type="line"/>
      <point x="322" y="516"/>
      <point x="409" y="453"/>
      <point x="409" y="378" type="curve" smooth="yes"/>
      <point x="409" y="247" type="line"/>
      <point x="78" y="247" type="line"/>
      <point x="78" y="141" type="line" smooth="yes"/>
      <point x="78" y="105"/>
      <point x="135" y="38"/>
      <point x="202" y="38" type="curve"/>
      <point x="202" y="0" type="line"/>
      <point x="95" y="0"/>
      <point x="38" y="93"/>
    </contour>
    <contour>
      <point x="246" y="0" type="curve"/>
      <point x="246" y="41" type="line"/>
      <point x="317" y="41"/>
      <point x="362" y="98"/>
      <point x="371" y="134" type="curve"/>
      <point x="410" y="120" type="line"/>
      <point x="391" y="56"/>
      <point x="334" y="0"/>
    </contour>
  </outline>
</glyph>
<glyph name="h" format="1">
  <advance width="437"/>
  <unicode hex="0068"/>
  <outline>
    <contour>
      <point x="42" y="1" type="line"/>
      <point x="42" y="698" type="line"/>
      <point x="81" y="698" type="line"/>
      <point x="81" y="454" type="line"/>
      <point x="98" y="478"/>
      <point x="138" y="511"/>
      <point x="205" y="511" type="curve"/>
      <point x="205" y="473" type="line"/>
      <point x="147" y="473"/>
      <point x="82" y="420"/>
      <point x="82" y="365" type="curve" smooth="yes"/>
      <point x="82" y="1" type="line"/>
    </contour>
    <contour>
      <point x="250" y="473" type="curve"/>
      <point x="250" y="511" type="line"/>
      <point x="349" y="511"/>
      <point x="407" y="443"/>
      <point x="407" y="374" type="curve" smooth="yes"/>
      <point x="407" y="1" type="line"/>
      <point x="367" y="1" type="line"/>
      <point x="367" y="365" type="line" smooth="yes"/>
      <point x="367" y="418"/>
      <point x="330" y="473"/>
    </contour>
  </outline>
</glyph>
<glyph name="i" format="1">
  <advance width="139"/>
  <unicode hex="0069"/>
  <outline>
    <contour>
      <point x="42" y="583" type="curve" smooth="yes"/>
      <point x="42" y="598"/>
      <point x="55" y="610"/>
      <point x="70" y="610" type="curve" smooth="yes"/>
      <point x="85" y="610"/>
      <point x="97" y="598"/>
      <point x="97" y="583" type="curve" smooth="yes"/>
      <point x="97" y="568"/>
      <point x="85" y="556"/>
      <point x="70" y="556" type="curve" smooth="yes"/>
      <point x="55" y="556"/>
      <point x="42" y="568"/>
    </contour>
    <contour>
      <point x="50" y="0" type="line"/>
      <point x="50" y="516" type="line"/>
      <point x="90" y="516" type="line"/>
      <point x="90" y="0" type="line"/>
    </contour>
  </outline>
</glyph>
<glyph name="k" format="1">
  <advance width="458"/>
  <unicode hex="006B"/>
  <outline>
    <contour>
      <point x="40" y="0" type="line"/>
      <point x="40" y="698" type="line"/>
      <point x="80" y="698" type="line"/>
      <point x="80" y="0" type="line"/>
    </contour>
    <contour>
      <point x="102" y="257" type="line"/>
      <point x="378" y="514" type="line"/>
      <point x="438" y="514" type="line"/>
      <point x="162" y="257" type="line"/>
      <point x="438" y="0" type="line"/>
      <point x="378" y="0" type="line"/>
    </contour>
  </outline>
</glyph>
<glyph name="o" format="1">
  <advance width="440"/>
  <unicode hex="006F"/>
  <outline>
    <contour>
      <point x="38" y="141" type="curve" smooth="yes"/>
      <point x="38" y="376" type="line" smooth="yes"/>
      <point x="38" y="425"/>
      <point x="92" y="516"/>
      <point x="202" y="516" type="curve"/>
      <point x="202" y="478" type="line"/>
      <point x="122" y="478"/>
      <point x="78" y="410"/>
      <point x="78" y="363" type="curve" smooth="yes"/>
      <point x="78" y="154" type="line" smooth="yes"/>
      <point x="78" y="111"/>
      <point x="129" y="37"/>
      <point x="202" y="37" type="curve"/>
      <point x="202" y="-1" type="line"/>
      <point x="90" y="-1"/>
      <point x="38" y="93"/>
    </contour>
    <contour>
      <point x="243" y="-1" type="curve"/>
      <point x="243" y="37" type="line"/>
      <point x="318" y="37"/>
      <point x="362" y="108"/>
      <point x="362" y="152" type="curve" smooth="yes"/>
      <point x="362" y="363" type="line" smooth="yes"/>
      <point x="362" y="408"/>
      <point x="318" y="478"/>
      <point x="243" y="478" type="curve"/>
      <point x="243" y="516" type="line"/>
      <point x="351" y="516"/>
      <point x="402" y="425"/>
      <point x="402" y="376" type="curve" smooth="yes"/>
      <point x="402" y="141" type="line" smooth="yes"/>
      <point x="402" y="92"/>
      <point x="351" y="-1"/>
    </contour>
  </outline>
</glyph>
<glyph name="p" format="1">
  <advance width="444"/>
  <unicode hex="0070"/>
  <outline>
    <contour>
      <point x="42" y="-182" type="line"/>
      <point x="42" y="516" type="line"/>
      <point x="82" y="516" type="line"/>
      <point x="82" y="-182" type="line"/>
    </contour>
    <contour>
      <point x="127" y="478" type="line"/>
      <point x="127" y="516" type="line"/>
      <point x="235" y="516" type="line" smooth="yes"/>
      <point x="353" y="516"/>
      <point x="408" y="427"/>
      <point x="408" y="375" type="curve" smooth="yes"/>
      <point x="408" y="139" type="line"/>
      <point x="408" y="86"/>
      <point x="356" y="0"/>
      <point x="243" y="0" type="curve" smooth="yes"/>
      <point x="134" y="0" type="line"/>
      <point x="134" y="38" type="line"/>
      <point x="245" y="38" type="line" smooth="yes"/>
      <point x="323" y="38"/>
      <point x="368" y="92"/>
      <point x="368" y="143" type="curve" smooth="yes"/>
      <point x="368" y="372" type="line"/>
      <point x="368" y="413"/>
      <point x="321" y="478"/>
      <point x="235" y="478" type="curve" smooth="yes"/>
    </contour>
  </outline>
</glyph>
<glyph name="r" format="1">
  <advance width="223"/>
  <unicode hex="0072"/>
  <outline>
    <contour>
      <point x="42" y="0" type="line"/>
      <point x="42" y="516" type="line"/>
      <point x="82" y="516" type="line"/>
      <point x="82" y="431" type="line"/>
      <point x="95" y="464"/>
      <point x="141" y="515"/>
      <point x="212" y="515" type="curve" smooth="yes"/>
      <point x="213" y="515" type="line"/>
      <point x="203" y="478" type="line"/>
      <point x="143" y="478"/>
      <point x="82" y="390"/>
      <point x="82" y="308" type="curve" smooth="yes"/>
      <point x="82" y="0" type="line"/>
    </contour>
  </outline>
</glyph>
<glyph name="u" format="1">
  <advance width="450"/>
  <unicode hex="0075"/>
  <outline>
    <contour>
      <point x="38" y="137" type="curve" smooth="yes"/>
      <point x="38" y="514" type="line"/>
      <point x="78" y="514" type="line"/>
      <point x="78" y="142" type="line" smooth="yes"/>
      <point x="78" y="96"/>
      <point x="134" y="35"/>
      <point x="204" y="35" type="curve"/>
      <point x="204" y="-5" type="line"/>
      <point x="91" y="-5"/>
      <point x="38" y="86"/>
    </contour>
    <contour>
      <point x="246" y="-5" type="curve"/>
      <point x="246" y="35" type="line"/>
      <point x="318" y="35"/>
      <point x="372" y="94"/>
      <point x="372" y="142" type="curve" smooth="yes"/>
      <point x="372" y="514" type="line"/>
      <point x="412" y="514" type="line"/>
      <point x="412" y="137" type="line" smooth="yes"/>
      <point x="412" y="89"/>
      <point x="358" y="-5"/>
    </contour>
  </outline>
</glyph>
<glyph name="v" format="1">
  <advance width="400"/>
  <unicode hex="0076"/>
  <outline>
    <contour>
      <point x="8" y="515" type="line"/>
      <point x="53" y="515" type="line"/>
      <point x="219" y="31" type="line"/>
      <point x="208" y="0" type="line"/>
      <point x="188" y="0" type="line"/>
    </contour>
    <contour>
      <point x="213" y="140" type="line"/>
      <point x="347" y="515" type="line"/>
      <point x="392" y="515" type="line"/>
      <point x="241" y="92" type="line"/>
      <point x="229" y="92" type="line"/>
    </contour>
  </outline>
</glyph>
<glyph name="w" format="1">
  <advance width="723"/>
  <unicode hex="0077"/>
  <outline>
    <contour>
      <point x="339" y="516" type="line"/>
      <point x="384" y="516" type="line"/>
      <point x="550" y="32" type="line"/>
      <point x="539" y="1" type="line"/>
      <point x="519" y="1" type="line"/>
    </contour>
    <contour>
      <point x="544" y="141" type="line"/>
      <point x="668" y="516" type="line"/>
      <point x="713" y="516" type="line"/>
      <point x="572" y="93" type="line"/>
      <point x="560" y="93" type="line"/>
    </contour>
    <contour>
      <point x="10" y="516" type="line"/>
      <point x="55" y="516" type="line"/>
      <point x="221" y="32" type="line"/>
      <point x="210" y="1" type="line"/>
      <point x="190" y="1" type="line"/>
    </contour>
    <contour>
      <point x="215" y="141" type="line"/>
      <point x="339" y="516" type="line"/>
      <point x="384" y="516" type="line"/>
      <point x="243" y="93" type="line"/>
      <point x="231" y="93" type="line"/>
    </contour>
  </outline>
</glyph>
<glyph name="y" format="1">
  <advance width="390"/>
  <unicode hex="0079"/>
  <outline>
    <contour>
      <point x="4" y="515" type="line"/>
      <point x="43" y="515" type="line"/>
      <point x="212" y="111" type="line"/>
      <point x="115" y="-182" type="line"/>
      <point x="76" y="-182" type="line"/>
      <point x="173" y="111" type="line"/>
    </contour>
    <contour>
      <point x="213" y="197" type="line"/>
      <point x="347" y="515" type="line"/>
      <point x="386" y="515" type="line"/>
      <point x="235" y="156" type="line"/>
      <point x="230" y="156" type="line"/>
    </contour>
  </outline>
</glyph>
<glyph name="z" format="1">
  <advance width="356"/>
  <unicode hex="007A"/>
  <outline>
    <contour>
      <point x="30" y="0" type="line"/>
      <point x="31" y="37" type="line"/>
      <point x="284" y="476" type="line"/>
      <point x="30" y="476" type="line"/>
      <point x="30" y="514" type="line"/>
      <point x="326" y="514" type="line"/>
      <point x="326" y="482" type="line"/>
      <point x="72" y="38" type="line"/>
      <point x="326" y="38" type="line"/>
      <point x="326" y="0" type="line"/>
    </contour>
  </outline>
</glyph>
<glyph name="bar" format="1">
  <advance width="135"/>
  <unicode hex="007C"/>
  <outline>
    <contour>
      <point x="50" y="-134" type="line"/>
      <point x="50" y="754" type="line"/>
      <point x="85" y="754" type="line"/>
      <point x="85" y="-134" type="line"/>
    </contour>
  </outline>
</glyph>
<glyph name="exclamdown" format="1">
  <advance width="138"/>
  <unicode hex="00A1"/>
  <outline>
    <contour>
      <point x="20" y="489" type="curve" smooth="yes"/>
      <point x="20" y="504"/>
      <point x="33" y="516"/>
      <point x="48" y="516" type="curve" smooth="yes"/>
      <point x="63" y="516"/>
      <point x="75" y="504"/>
      <point x="75" y="489" type="curve" smooth="yes"/>
      <point x="75" y="474"/>
      <point x="63" y="462"/>
      <point x="48" y="462" type="curve" smooth="yes"/>
      <point x="33" y="462"/>
      <point x="20" y="474"/>
    </contour>
    <contour>
      <point x="28" y="-94" type="line"/>
      <point x="28" y="422" type="line"/>
      <point x="68" y="422" type="line"/>
      <point x="68" y="-94" type="line"/>
    </contour>
  </outline>
</glyph>
<glyph name="cent" format="1">
  <advance width="420"/>
  <unicode hex="00A2"/>
  <outline>
    <contour>
      <point x="242" y="24" type="line"/>
      <point x="265" y="24" type="line"/>
      <point x="265" y="-61" type="line"/>
      <point x="242" y="-61" type="line"/>
    </contour>
    <contour>
      <point x="175" y="24" type="line"/>
      <point x="198" y="24" type="line"/>
      <point x="198" y="-61" type="line"/>
      <point x="175" y="-61" type="line"/>
    </contour>
    <contour>
      <point x="242" y="577" type="line"/>
      <point x="265" y="577" type="line"/>
      <point x="265" y="492" type="line"/>
      <point x="242" y="492" type="line"/>
    </contour>
    <contour>
      <point x="175" y="577" type="line"/>
      <point x="198" y="577" type="line"/>
      <point x="198" y="492" type="line"/>
      <point x="175" y="492" type="line"/>
    </contour>
    <contour>
      <point x="38" y="141" type="curve" smooth="yes"/>
      <point x="38" y="166"/>
      <point x="38" y="281"/>
      <point x="38" y="372" type="curve" smooth="yes"/>
      <point x="38" y="431"/>
      <point x="91" y="516"/>
      <point x="198" y="516" type="curve"/>
      <point x="198" y="478" type="line"/>
      <point x="127" y="478"/>
      <point x="79" y="414"/>
      <point x="79" y="369" type="curve" smooth="yes"/>
      <point x="79" y="141" type="line" smooth="yes"/>
      <point x="79" y="100"/>
      <point x="128" y="38"/>
      <point x="198" y="38" type="curve"/>
      <point x="198" y="0" type="line"/>
      <point x="77" y="0"/>
      <point x="38" y="94"/>
    </contour>
    <contour>
      <point x="242" y="477" type="curve"/>
      <point x="242" y="516" type="line"/>
      <point x="323" y="516"/>
      <point x="389" y="451"/>
      <point x="389" y="372" type="curve"/>
      <point x="350" y="358" type="line"/>
      <point x="350" y="362.113"/>
      <point x="349.847" y="366.113"/>
      <point x="349.549" y="370" type="curve" smooth="yes"/>
      <point x="343.916" y="443.619"/>
      <point x="286.643" y="477"/>
    </contour>
    <contour>
      <point x="242" y="-1" type="curve"/>
      <point x="242" y="37" type="line"/>
      <point x="296.597" y="37"/>
      <point x="350.366" y="81.7127"/>
      <point x="359.607" y="141" type="curve" smooth="yes"/>
      <point x="360.522" y="146.867"/>
      <point x="361" y="152.877"/>
      <point x="361" y="159" type="curve"/>
      <point x="400" y="144" type="line"/>
      <point x="400" y="65"/>
      <point x="322" y="-1"/>
    </contour>
  </outline>
</glyph>
<glyph name="yen" format="1">
  <advance width="452"/>
  <unicode hex="00A5"/>
  <outline>
    <contour>
      <point x="21" y="186" type="line"/>
      <point x="436" y="186" type="line"/>
      <point x="436" y="153" type="line"/>
      <point x="21" y="153" type="line"/>
    </contour>
    <contour>
      <point x="21" y="276" type="line"/>
      <point x="436" y="276" type="line"/>
      <point x="436" y="243" type="line"/>
      <point x="21" y="243" type="line"/>
    </contour>
    <contour>
      <point x="207" y="0" type="line"/>
      <point x="207" y="288" type="line"/>
      <point x="57" y="698" type="line"/>
      <point x="98" y="698" type="line"/>
      <point x="227" y="343" type="line"/>
      <point x="355" y="698" type="line"/>
      <point x="396" y="698" type="line"/>
      <point x="247" y="288" type="line"/>
      <point x="247" y="0" type="line"/>
    </contour>
  </outline>
</glyph>
<glyph name="logicalnot" format="1">
  <advance width="501"/>
  <unicode hex="00AC"/>
  <outline>
    <contour>
      <point x="40" y="368" type="line"/>
      <point x="40" y="406" type="line"/>
      <point x="451" y="406" type="line"/>
      <point x="451" y="208" type="line"/>
      <point x="411" y="208" type="line"/>
      <point x="411" y="368" type="line"/>
    </contour>
  </outline>
</glyph>
<glyph name="registered" format="1">
  <advance width="374"/>
  <unicode hex="00AE"/>
  <outline>
    <contour>
      <point x="30" y="525" type="curve" smooth="yes"/>
      <point x="30" y="630"/>
      <point x="114" y="687"/>
      <point x="180" y="687" type="curve"/>
      <point x="180" y="676" type="line"/>
      <point x="104" y="676"/>
      <point x="40" y="611"/>
      <point x="40" y="526" type="curve"/>
      <point x="41" y="454"/>
      <point x="101" y="382"/>
      <point x="176" y="382" type="curve"/>
      <point x="177" y="370" type="line"/>
      <point x="96.7967" y="370"/>
      <point x="30" y="447.631"/>
    </contour>
    <contour>
      <point x="131" y="432" type="line"/>
      <point x="131" y="627" type="line"/>
      <point x="142" y="627" type="line"/>
      <point x="142" y="432" type="line"/>
    </contour>
    <contour>
      <point x="154" y="524" type="curve"/>
      <point x="154" y="534" type="line"/>
      <point x="182" y="534" type="line" smooth="yes"/>
      <point x="215" y="534"/>
      <point x="237" y="546"/>
      <point x="237" y="570" type="curve" smooth="yes"/>
      <point x="237" y="615"/>
      <point x="199" y="616"/>
      <point x="162" y="616" type="curve" smooth="yes"/>
      <point x="154" y="616" type="line"/>
      <point x="154" y="627" type="line"/>
      <point x="187" y="627"/>
      <point x="248" y="632"/>
      <point x="248" y="570" type="curve" smooth="yes"/>
      <point x="248" y="547"/>
      <point x="235" y="536"/>
      <point x="219" y="530" type="curve"/>
      <point x="231" y="527"/>
      <point x="246" y="514"/>
      <point x="248" y="492" type="curve" smooth="yes"/>
      <point x="253" y="432" type="line"/>
      <point x="241" y="432" type="line"/>
      <point x="237" y="481" type="line" smooth="yes"/>
      <point x="234" y="516"/>
      <point x="225" y="524"/>
    </contour>
    <contour>
      <point x="196" y="371" type="curve"/>
      <point x="196" y="382" type="line"/>
      <point x="272.689" y="382"/>
      <point x="334" y="453.63"/>
      <point x="334" y="527" type="curve" smooth="yes"/>
      <point x="334" y="610"/>
      <point x="268" y="676"/>
      <point x="196" y="676" type="curve"/>
      <point x="196" y="687" type="line"/>
      <point x="265" y="687"/>
      <point x="344" y="622"/>
      <point x="344" y="528" type="curve" smooth="yes"/>
      <point x="344" y="435.623"/>
      <point x="273.08" y="371"/>
    </contour>
  </outline>
</glyph>
<glyph name="plusminus" format="1">
  <advance width="461"/>
  <unicode hex="00B1"/>
  <outline>
    <contour>
      <point x="60" y="129" type="line"/>
      <point x="60" y="167" type="line"/>
      <point x="436" y="167" type="line"/>
      <point x="436" y="129" type="line"/>
    </contour>
    <component base="plus" xOffset="10" yOffset="161"/>
  </outline>
</glyph>
<glyph name="twosuperior" format="1">
  <advance width="231"/>
  <unicode hex="00B2"/>
  <outline>
    <contour>
      <point x="20.9404" y="624.365" type="line"/>
      <point x="24.7197" y="659.645"/>
      <point x="55.3398" y="696.185"/>
      <point x="99.8594" y="699.965" type="curve"/>
      <point x="99.8594" y="674.005" type="line"/>
      <point x="99.8594" y="674.005"/>
      <point x="53.9023" y="671.965"/>
      <point x="45.9023" y="618.965" type="curve"/>
    </contour>
    <contour>
      <point x="24.666" y="387" type="line"/>
      <point x="24.666" y="412.989" type="line"/>
      <point x="205.291" y="412.989" type="line"/>
      <point x="205.291" y="387" type="line"/>
    </contour>
    <contour>
      <point x="24.666" y="431.768" type="line"/>
      <point x="24.666" y="510.902"/>
      <point x="117.725" y="539.532"/>
      <point x="134.204" y="548.693" type="curve" smooth="yes"/>
      <point x="163.591" y="565.03"/>
      <point x="185.09" y="582.413"/>
      <point x="185.09" y="613.863" type="curve" smooth="yes"/>
      <point x="185.09" y="634.866"/>
      <point x="171.783" y="673.975"/>
      <point x="119.979" y="673.975" type="curve"/>
      <point x="119.979" y="699.965" type="line"/>
      <point x="183.619" y="699.965"/>
      <point x="210.889" y="658.809"/>
      <point x="210.974" y="612.863" type="curve" smooth="yes"/>
      <point x="211.06" y="566.297"/>
      <point x="177.961" y="540.741"/>
      <point x="147.559" y="525.094" type="curve" smooth="yes"/>
      <point x="114.474" y="508.104"/>
      <point x="54.5498" y="490.278"/>
      <point x="54.5498" y="431.768" type="curve"/>
    </contour>
  </outline>
</glyph>
<glyph name="acute" format="1">
  <advance width="308"/>
  <unicode hex="00B4"/>
  <outline>
    <contour>
      <point x="115" y="605" type="line"/>
      <point x="152" y="757" type="line"/>
      <point x="192" y="757" type="line"/>
      <point x="143" y="605" type="line"/>
    </contour>
  </outline>
</glyph>
<glyph name="paragraph" format="1">
  <advance width="363"/>
  <unicode hex="00B6"/>
  <outline>
    <contour>
      <point x="35" y="517" type="curve" smooth="yes"/>
      <point x="35" y="617"/>
      <point x="102" y="705"/>
      <point x="204" y="705" type="curve" smooth="yes"/>
      <point x="232" y="705"/>
      <point x="206" y="705"/>
      <point x="234" y="705" type="curve"/>
      <point x="234" y="-5" type="line"/>
      <point x="204" y="-5" type="line"/>
      <point x="204" y="329" type="line"/>
      <point x="100" y="329"/>
      <point x="35" y="403"/>
    </contour>
    <contour>
      <point x="279" y="-5" type="line"/>
      <point x="279" y="705" type="line"/>
      <point x="309" y="705" type="line"/>
      <point x="309" y="-5" type="line"/>
    </contour>
  </outline>
</glyph>
<glyph name="cedilla" format="1">
  <advance width="399"/>
  <unicode hex="00B8"/>
  <outline>
    <contour>
      <point x="123" y="-9" type="curve"/>
      <point x="123" y="29" type="line"/>
      <point x="182" y="29"/>
      <point x="224" y="68"/>
      <point x="224" y="123" type="curve"/>
      <point x="264" y="123" type="line"/>
      <point x="264" y="67"/>
      <point x="224" y="-9"/>
    </contour>
  </outline>
</glyph>
<glyph name="onequarter" format="1">
  <advance width="560"/>
  <unicode hex="00BC"/>
  <outline>
    <contour>
      <point x="52" y="-2" type="line"/>
      <point x="484" y="702" type="line"/>
      <point x="509" y="702" type="line"/>
      <point x="77" y="-2" type="line"/>
    </contour>
    <component base="four" xScale="0.5" yScale="0.5" xOffset="258.25" yOffset="-0.25"/>
    <component base="one" xScale="0.5" yScale="0.5" xOffset="66" yOffset="352"/>
  </outline>
</glyph>
<glyph name="onehalf" format="1">
  <advance width="581"/>
  <unicode hex="00BD"/>
  <outline>
    <contour>
      <point x="52" y="-2" type="line"/>
      <point x="484" y="702" type="line"/>
      <point x="509" y="702" type="line"/>
      <point x="77" y="-2" type="line"/>
    </contour>
    <component base="two" xScale="0.5" yScale="0.5" xOffset="325.236" yOffset="1"/>
    <component base="one" xScale="0.5" yScale="0.5" xOffset="66" yOffset="352"/>
  </outline>
</glyph>
<glyph name="threequarters" format="1">
  <advance width="624"/>
  <unicode hex="00BE"/>
  <outline>
    <contour>
      <point x="155.364" y="345" type="curve"/>
      <point x="155.364" y="375" type="line"/>
      <point x="201.88" y="375"/>
      <point x="223.998" y="403.467"/>
      <point x="223.998" y="442.844" type="curve" smooth="yes"/>
      <point x="223.998" y="452.032"/>
      <point x="222.487" y="509"/>
      <point x="152.864" y="509" type="curve"/>
      <point x="142.864" y="509" type="line"/>
      <point x="142.864" y="536" type="line"/>
      <point x="152.864" y="536" type="line"/>
      <point x="222.487" y="536"/>
      <point x="223.998" y="592.968"/>
      <point x="223.998" y="602.156" type="curve" smooth="yes"/>
      <point x="223.998" y="641.533"/>
      <point x="201.88" y="670"/>
      <point x="155.364" y="670" type="curve"/>
      <point x="155.364" y="700" type="line"/>
      <point x="220.46" y="699.9"/>
      <point x="253.622" y="655.268"/>
      <point x="253.622" y="603.262" type="curve" smooth="yes"/>
      <point x="253.622" y="570.364"/>
      <point x="244.864" y="543"/>
      <point x="213.726" y="523" type="curve"/>
      <point x="244.864" y="502"/>
      <point x="253.622" y="474.636"/>
      <point x="253.622" y="441.738" type="curve" smooth="yes"/>
      <point x="253.622" y="389.732"/>
      <point x="220.46" y="345.1"/>
    </contour>
    <contour>
      <point x="525.25" y="-0.25" type="line"/>
      <point x="525.25" y="350.25" type="line"/>
      <point x="555.75" y="350.25" type="line"/>
      <point x="555.75" y="91.25" type="line"/>
      <point x="582.75" y="91.25" type="line"/>
      <point x="582.75" y="61.25" type="line"/>
      <point x="555.75" y="61.25" type="line"/>
      <point x="555.75" y="-0.25" type="line"/>
    </contour>
    <contour>
      <point x="357.25" y="61.25" type="line"/>
      <point x="357.25" y="91.25" type="line"/>
      <point x="502.75" y="338.25" type="line"/>
      <point x="502.75" y="279.75" type="line"/>
      <point x="392.75" y="91.25" type="line"/>
      <point x="502.75" y="91.25" type="line"/>
      <point x="502.75" y="61.25" type="line"/>
    </contour>
    <contour>
      <point x="39.8643" y="435" type="curve"/>
      <point x="68.6562" y="442" type="line"/>
      <point x="76.6562" y="375"/>
      <point x="127.864" y="375"/>
      <point x="127.864" y="375" type="curve" smooth="yes"/>
      <point x="127.864" y="345" type="line"/>
      <point x="74.8643" y="349.5"/>
      <point x="44.3643" y="393"/>
    </contour>
    <contour>
      <point x="39.8369" y="610" type="line"/>
      <point x="44.3369" y="652"/>
      <point x="74.8369" y="695.5"/>
      <point x="127.837" y="700" type="curve"/>
      <point x="127.837" y="670" type="line" smooth="yes"/>
      <point x="127.837" y="670"/>
      <point x="76.6289" y="670"/>
      <point x="68.6289" y="603" type="curve"/>
    </contour>
    <contour>
      <point x="126" y="0" type="line"/>
      <point x="558" y="700" type="line"/>
      <point x="594" y="700" type="line"/>
      <point x="162" y="0" type="line"/>
    </contour>
  </outline>
</glyph>
<glyph name="Aring" format="1">
  <advance width="516"/>
  <unicode hex="00C5"/>
  <outline>
    <contour>
      <point x="74" y="0" type="line"/>
      <point x="211" y="599" type="line"/>
      <point x="228" y="599" type="line"/>
      <point x="238" y="554" type="line"/>
      <point x="114" y="0" type="line"/>
    </contour>
    <contour>
      <point x="188" y="135" type="line"/>
      <point x="196" y="173" type="line"/>
      <point x="366" y="173" type="line"/>
      <point x="252" y="694" type="line"/>
      <point x="220" y="701"/>
      <point x="196" y="731"/>
      <point x="196" y="765" type="curve" smooth="yes"/>
      <point x="196" y="805"/>
      <point x="228" y="837"/>
      <point x="268" y="837" type="curve" smooth="yes"/>
      <point x="308" y="837"/>
      <point x="341" y="805"/>
      <point x="341" y="765" type="curve" smooth="yes"/>
      <point x="341" y="733"/>
      <point x="321" y="706"/>
      <point x="292" y="696" type="curve"/>
      <point x="443" y="0" type="line"/>
      <point x="403" y="0" type="line"/>
      <point x="375" y="135" type="line"/>
    </contour>
    <contour>
      <point x="230" y="765" type="curve" smooth="yes"/>
      <point x="230" y="744"/>
      <point x="247" y="727"/>
      <point x="268" y="727" type="curve" smooth="yes"/>
      <point x="290" y="727"/>
      <point x="307" y="744"/>
      <point x="307" y="765" type="curve" smooth="yes"/>
      <point x="307" y="787"/>
      <point x="290" y="804"/>
      <point x="268" y="804" type="curve" smooth="yes"/>
      <point x="247" y="804"/>
      <point x="230" y="787"/>
    </contour>
  </outline>
</glyph>
<glyph name="ae" format="1">
  <advance width="435"/>
  <unicode hex="00E6"/>
  <outline>
    <contour>
      <point x="26" y="121" type="curve" smooth="yes"/>
      <point x="26" y="157" type="line" smooth="yes"/>
      <point x="26" y="316.965"/>
      <point x="343" y="287.805"/>
      <point x="343" y="363" type="curve" smooth="yes"/>
      <point x="343" y="382" type="line" smooth="yes"/>
      <point x="343" y="436.308"/>
      <point x="279.256" y="483"/>
      <point x="203" y="483" type="curve" smooth="yes"/>
      <point x="135.933" y="483"/>
      <point x="70" y="453.433"/>
      <point x="70" y="375" type="curve"/>
      <point x="33" y="389" type="line"/>
      <point x="31.8012" y="477.714"/>
      <point x="121.137" y="520"/>
      <point x="205" y="520" type="curve" smooth="yes"/>
      <point x="274" y="520"/>
      <point x="333.433" y="493.892"/>
      <point x="365" y="438" type="curve"/>
      <point x="390" y="478"/>
      <point x="438" y="516"/>
      <point x="507" y="516" type="curve"/>
      <point x="507" y="478" type="line"/>
      <point x="435" y="478"/>
      <point x="384" y="413.761"/>
      <point x="384" y="359" type="curve" smooth="yes"/>
      <point x="384" y="334.333"/>
      <point x="384" y="309.667"/>
      <point x="384" y="285" type="curve"/>
      <point x="675" y="285" type="line"/>
      <point x="675" y="369" type="line" smooth="yes"/>
      <point x="675" y="428"/>
      <point x="613" y="480"/>
      <point x="552" y="480" type="curve"/>
      <point x="552" y="516" type="line"/>
      <point x="628" y="516"/>
      <point x="715" y="453"/>
      <point x="715" y="378" type="curve" smooth="yes"/>
      <point x="715" y="247" type="line"/>
      <point x="384" y="247" type="line"/>
      <point x="384" y="141" type="line" smooth="yes"/>
      <point x="384" y="81.8653"/>
      <point x="459.972" y="36"/>
      <point x="532" y="36" type="curve" smooth="yes"/>
      <point x="602.966" y="36"/>
      <point x="662.423" y="74.9668"/>
      <point x="679" y="133" type="curve"/>
      <point x="716" y="120" type="line"/>
      <point x="693.753" y="45.0642"/>
      <point x="633.075" y="0"/>
      <point x="530" y="0" type="curve" smooth="yes"/>
      <point x="454.549" y="0"/>
      <point x="397.185" y="28.1111"/>
      <point x="371" y="73" type="curve"/>
      <point x="340" y="19"/>
      <point x="290" y="0"/>
      <point x="227" y="1" type="curve"/>
      <point x="227" y="39" type="line"/>
      <point x="283.513" y="39"/>
      <point x="343" y="52"/>
      <point x="343" y="149" type="curve" smooth="yes"/>
      <point x="343" y="308" type="line"/>
      <point x="303.703" y="263.858"/>
      <point x="66.2671" y="265.7"/>
      <point x="67" y="162" type="curve"/>
      <point x="67" y="142" type="line" smooth="yes"/>
      <point x="67" y="66"/>
      <point x="125" y="39"/>
      <point x="182" y="39" type="curve"/>
      <point x="182" y="1" type="line"/>
      <point x="85" y="1"/>
      <point x="26" y="64"/>
    </contour>
  </outline>
</glyph>
<glyph name="divide" format="1">
  <advance width="650"/>
  <unicode hex="00F7"/>
  <outline>
    <contour>
      <point x="100" y="273" type="line"/>
      <point x="100" y="311" type="line"/>
      <point x="550" y="311" type="line"/>
      <point x="550" y="273" type="line"/>
    </contour>
    <component base="period" xOffset="283" yOffset="376"/>
    <component base="period" xOffset="283" yOffset="199"/>
  </outline>
</glyph>
<glyph name="oe" format="1">
  <advance width="757"/>
  <unicode hex="0153"/>
  <outline>
    <contour>
      <point x="375" y="79" type="curve"/>
      <point x="351" y="38"/>
      <point x="305" y="-1"/>
      <point x="235" y="-1" type="curve"/>
      <point x="235" y="37" type="line"/>
      <point x="310" y="37"/>
      <point x="354" y="108"/>
      <point x="354" y="152" type="curve" smooth="yes"/>
      <point x="354" y="363" type="line" smooth="yes"/>
      <point x="354" y="408"/>
      <point x="310" y="478"/>
      <point x="235" y="478" type="curve"/>
      <point x="235" y="516" type="line"/>
      <point x="305" y="516"/>
      <point x="351" y="477"/>
      <point x="376" y="438" type="curve"/>
      <point x="401" y="478"/>
      <point x="449" y="516"/>
      <point x="518" y="516" type="curve"/>
      <point x="518" y="478" type="line"/>
      <point x="446" y="478"/>
      <point x="395" y="413.762"/>
      <point x="395" y="359" type="curve" smooth="yes"/>
      <point x="395" y="334.333"/>
      <point x="395" y="309.667"/>
      <point x="395" y="285" type="curve"/>
      <point x="686" y="285" type="line"/>
      <point x="686" y="369" type="line" smooth="yes"/>
      <point x="686" y="428"/>
      <point x="624" y="480"/>
      <point x="563" y="480" type="curve"/>
      <point x="563" y="516" type="line"/>
      <point x="639" y="516"/>
      <point x="726" y="453"/>
      <point x="726" y="378" type="curve" smooth="yes"/>
      <point x="726" y="247" type="line"/>
      <point x="395" y="247" type="line"/>
      <point x="395" y="141" type="line" smooth="yes"/>
      <point x="395" y="81.8652"/>
      <point x="470.973" y="36"/>
      <point x="543" y="36" type="curve" smooth="yes"/>
      <point x="613.966" y="36"/>
      <point x="673.423" y="74.9668"/>
      <point x="690" y="133" type="curve"/>
      <point x="727" y="120" type="line"/>
      <point x="704.754" y="45.0645"/>
      <point x="644.074" y="0"/>
      <point x="541" y="0" type="curve" smooth="yes"/>
      <point x="465.549" y="0"/>
      <point x="401.186" y="34.1113"/>
    </contour>
    <contour>
      <point x="30" y="141" type="curve" smooth="yes"/>
      <point x="30" y="376" type="line" smooth="yes"/>
      <point x="30" y="425"/>
      <point x="84" y="516"/>
      <point x="194" y="516" type="curve"/>
      <point x="194" y="478" type="line"/>
      <point x="114" y="478"/>
      <point x="70" y="410"/>
      <point x="70" y="363" type="curve" smooth="yes"/>
      <point x="70" y="154" type="line" smooth="yes"/>
      <point x="70" y="111"/>
      <point x="121" y="37"/>
      <point x="194" y="37" type="curve"/>
      <point x="194" y="-1" type="line"/>
      <point x="82" y="-1"/>
      <point x="30" y="93"/>
    </contour>
  </outline>
</glyph>
<glyph name="circumflex" format="1">
  <advance width="270"/>
  <unicode hex="02C6"/>
  <outline>
    <contour>
      <point x="43" y="514" type="line"/>
      <point x="118" y="666" type="line"/>
      <point x="150" y="666" type="line"/>
      <point x="226" y="514" type="line"/>
      <point x="190" y="514" type="line"/>
      <point x="134" y="627" type="line"/>
      <point x="79" y="514" type="line"/>
    </contour>
  </outline>
</glyph>
<glyph name="perthousand" format="1">
  <advance width="897"/>
  <unicode hex="2030"/>
  <outline>
    <contour>
      <point x="90" y="-2" type="line"/>
      <point x="522" y="702" type="line"/>
      <point x="547" y="702" type="line"/>
      <point x="115" y="-2" type="line"/>
    </contour>
    <component base="zero" xScale="0.5" yScale="0.5" xOffset="635" yOffset="2"/>
    <component base="zero" xScale="0.5" yScale="0.5" xOffset="376" yOffset="2"/>
    <component base="zero" xScale="0.5" yScale="0.5" xOffset="9" yOffset="352"/>
  </outline>
</glyph>
<glyph name="fraction" format="1">
  <advance width="468"/>
  <unicode hex="2044"/>
  <outline>
    <contour>
      <point x="0" y="0" type="line"/>
      <point x="432" y="700" type="line"/>
      <point x="468" y="700" type="line"/>
      <point x="36" y="0" type="line"/>
    </contour>
  </outline>
</glyph>
<glyph name="Euro" format="1">
  <advance width="494"/>
  <unicode hex="20AC"/>
  <outline>
    <contour>
      <point x="51" y="282" type="line"/>
      <point x="51" y="317" type="line"/>
      <point x="89" y="317" type="line"/>
      <point x="89" y="377" type="line"/>
      <point x="51" y="377" type="line"/>
      <point x="51" y="412" type="line"/>
      <point x="89" y="412" type="line"/>
      <point x="89" y="518" type="line" smooth="yes"/>
      <point x="89" y="578"/>
      <point x="143" y="706"/>
      <point x="290" y="705" type="curve"/>
      <point x="290" y="667" type="line"/>
      <point x="176" y="667"/>
      <point x="129" y="568"/>
      <point x="129" y="518" type="curve" smooth="yes"/>
      <point x="129" y="412" type="line"/>
      <point x="409" y="412" type="line"/>
      <point x="409" y="377" type="line"/>
      <point x="129" y="377" type="line"/>
      <point x="129" y="317" type="line"/>
      <point x="409" y="317" type="line"/>
      <point x="409" y="282" type="line"/>
      <point x="129" y="282" type="line"/>
      <point x="129" y="181" type="line" smooth="yes"/>
      <point x="129" y="131"/>
      <point x="177" y="33"/>
      <point x="290" y="33" type="curve"/>
      <point x="290" y="-5" type="line"/>
      <point x="142" y="-5"/>
      <point x="89" y="121"/>
      <point x="89" y="181" type="curve" smooth="yes"/>
      <point x="89" y="282" type="line"/>
    </contour>
    <contour>
      <point x="335" y="-5" type="curve"/>
      <point x="335" y="33" type="line"/>
      <point x="335" y="33"/>
      <point x="451" y="35"/>
      <point x="482" y="139" type="curve" smooth="yes"/>
      <point x="488" y="159"/>
      <point x="491" y="185"/>
      <point x="491" y="190" type="curve"/>
      <point x="525" y="182" type="line"/>
      <point x="525" y="76"/>
      <point x="432" y="-5"/>
    </contour>
    <contour>
      <point x="335" y="667" type="curve"/>
      <point x="335" y="705" type="line"/>
      <point x="432" y="706"/>
      <point x="525" y="612"/>
      <point x="525" y="516" type="curve"/>
      <point x="489" y="507" type="line"/>
      <point x="489" y="520"/>
      <point x="488" y="534"/>
      <point x="482" y="550" type="curve" smooth="yes"/>
      <point x="441" y="666"/>
      <point x="335" y="667"/>
    </contour>
  </outline>
</glyph>
<glyph name="uni2113" format="1">
  <advance width="184"/>
  <unicode hex="2113"/>
  <outline>
    <contour>
      <point x="71" y="170" type="curve" smooth="yes"/>
      <point x="71" y="700" type="line"/>
      <point x="111" y="700" type="line"/>
      <point x="111" y="170" type="line"/>
      <point x="111" y="41"/>
      <point x="184" y="33"/>
      <point x="212" y="33" type="curve"/>
      <point x="212" y="-5" type="line"/>
      <point x="152" y="-5"/>
      <point x="71" y="26"/>
    </contour>
  </outline>
</glyph>
<glyph name="trademark" format="1">
  <advance width="463"/>
  <unicode hex="2122"/>
  <outline>
    <contour>
      <point x="25.5898" y="687.572" type="line"/>
      <point x="25.5898" y="699.2" type="line"/>
      <point x="158.088" y="699.2" type="line"/>
      <point x="158.088" y="687.572" type="line"/>
      <point x="97.8057" y="687.572" type="line"/>
      <point x="97.8057" y="485" type="line"/>
      <point x="85.5664" y="485" type="line"/>
      <point x="85.5664" y="687.572" type="line"/>
    </contour>
    <contour>
      <point x="180.852" y="485" type="line"/>
      <point x="180.852" y="652.994" type="line"/>
      <point x="183.606" y="652.994" type="line"/>
      <point x="193.092" y="629.432" type="line"/>
      <point x="193.092" y="485" type="line"/>
    </contour>
    <contour>
      <point x="180.852" y="692.468" type="line"/>
      <point x="180.852" y="699.2" type="line"/>
      <point x="192.174" y="699.2" type="line"/>
      <point x="272.958" y="503.054" type="line"/>
      <point x="339.054" y="652.382" type="line"/>
      <point x="342.114" y="652.382" type="line"/>
      <point x="342.114" y="628.514" type="line"/>
      <point x="278.772" y="485" type="line"/>
      <point x="267.144" y="485" type="line"/>
    </contour>
    <contour>
      <point x="355.884" y="485" type="line"/>
      <point x="355.884" y="699.2" type="line"/>
      <point x="368.124" y="699.2" type="line"/>
      <point x="368.124" y="485" type="line"/>
    </contour>
  </outline>
</glyph>
<glyph name="uni2206" format="1">
  <advance width="476"/>
  <unicode hex="2206"/>
  <outline>
    <contour>
      <point x="30" y="0" type="line"/>
      <point x="196" y="615" type="line"/>
      <point x="204.218" y="615" type="line"/>
      <point x="217.142" y="553.815" type="line"/>
      <point x="79" y="40" type="line"/>
      <point x="391" y="40" type="line"/>
      <point x="214" y="706" type="line"/>
      <point x="252" y="706" type="line"/>
      <point x="446" y="0" type="line"/>
    </contour>
  </outline>
</glyph>
<glyph name="summation" format="1">
  <advance width="676"/>
  <unicode hex="2211"/>
  <outline>
    <contour>
      <point x="-2" y="-105" type="line"/>
      <point x="-2" y="-140" type="line"/>
      <point x="496" y="-140" type="line"/>
      <point x="496" y="-105" type="line"/>
    </contour>
    <contour>
      <point x="-2" y="667" type="line"/>
      <point x="288" y="308" type="line"/>
      <point x="-1" y="-53" type="line"/>
      <point x="-1" y="-63" type="line"/>
      <point x="41" y="-63" type="line"/>
      <point x="322" y="284" type="line"/>
      <point x="322" y="331" type="line"/>
      <point x="18" y="703" type="line"/>
      <point x="-2" y="703" type="line"/>
    </contour>
    <contour>
      <point x="80" y="694" type="line"/>
      <point x="102" y="668" type="line"/>
      <point x="496" y="668" type="line"/>
      <point x="496" y="703" type="line"/>
      <point x="80" y="703" type="line"/>
    </contour>
  </outline>
</glyph>
<glyph name="radical" format="1">
  <advance width="559"/>
  <unicode hex="221A"/>
  <outline>
    <contour>
      <point x="6" y="513" type="line"/>
      <point x="168" y="569" type="line"/>
      <point x="368" y="72" type="line"/>
      <point x="509" y="819" type="line"/>
      <point x="549" y="819" type="line"/>
      <point x="400" y="-2" type="line"/>
      <point x="353" y="-2" type="line"/>
      <point x="141" y="520" type="line"/>
      <point x="17" y="477" type="line"/>
    </contour>
  </outline>
</glyph>
<glyph name="fi" format="1">
  <advance width="494"/>
  <unicode hex="FB01"/>
  <outline>
    <contour>
      <point x="66" y="439" type="line"/>
      <point x="66" y="477" type="line"/>
      <point x="129" y="477" type="line"/>
      <point x="129" y="552" type="line" smooth="yes"/>
      <point x="129" y="597"/>
      <point x="142" y="696"/>
      <point x="248" y="696" type="curve" smooth="yes"/>
      <point x="259" y="696" type="line"/>
      <point x="250" y="658" type="line"/>
      <point x="246.158" y="658"/>
      <point x="242.494" y="657.828"/>
      <point x="239" y="657.496" type="curve" smooth="yes"/>
      <point x="178.826" y="651.768"/>
      <point x="169" y="598.311"/>
      <point x="169" y="552" type="curve" smooth="yes"/>
      <point x="169" y="476" type="line"/>
      <point x="315" y="476" type="line"/>
      <point x="315" y="0" type="line"/>
      <point x="275" y="0" type="line"/>
      <point x="275" y="439" type="line"/>
      <point x="169" y="439" type="line"/>
      <point x="169" y="0" type="line"/>
      <point x="129" y="0" type="line"/>
      <point x="129" y="439" type="line"/>
    </contour>
    <contour>
      <point x="267" y="583" type="curve" smooth="yes"/>
      <point x="267" y="598"/>
      <point x="280" y="610"/>
      <point x="295" y="610" type="curve" smooth="yes"/>
      <point x="310" y="610"/>
      <point x="322" y="598"/>
      <point x="322" y="583" type="curve" smooth="yes"/>
      <point x="322" y="568"/>
      <point x="310" y="556"/>
      <point x="295" y="556" type="curve" smooth="yes"/>
      <point x="280" y="556"/>
      <point x="267" y="568"/>
    </contour>
  </outline>
</glyph>
<glyph name="mooniak" format="1">
  <advance width="952"/>
  <outline>
    <contour>
      <point x="672.6" y="706" type="curve" smooth="yes"/>
      <point x="672.6" y="769.2"/>
      <point x="723.8" y="820.4"/>
      <point x="787" y="820.4" type="curve" smooth="yes"/>
      <point x="850.2" y="820.4"/>
      <point x="901.4" y="769.2"/>
      <point x="901.4" y="706" type="curve" smooth="yes"/>
      <point x="901.4" y="642.8"/>
      <point x="850.2" y="591.6"/>
      <point x="787" y="591.6" type="curve" smooth="yes"/>
      <point x="723.8" y="591.6"/>
      <point x="672.6" y="642.8"/>
    </contour>
    <contour>
      <point x="20.4004" y="371" type="curve" smooth="yes"/>
      <point x="20.4004" y="544.8"/>
      <point x="161.2" y="685.6"/>
      <point x="335" y="685.6" type="curve" smooth="yes"/>
      <point x="508.8" y="685.6"/>
      <point x="649.6" y="544.8"/>
      <point x="649.6" y="371" type="curve" smooth="yes"/>
      <point x="649.6" y="197.2"/>
      <point x="508.8" y="56.4004"/>
      <point x="335" y="56.4004" type="curve" smooth="yes"/>
      <point x="161.2" y="56.4004"/>
      <point x="20.4004" y="197.2"/>
    </contour>
  </outline>
</glyph>
